<?xml version="1.0" encoding="UTF-8" standalone="no"?>
<!-- Created with Inkscape (http://www.inkscape.org/) -->

<svg
   xmlns:dc="http://purl.org/dc/elements/1.1/"
   xmlns:cc="http://creativecommons.org/ns#"
   xmlns:rdf="http://www.w3.org/1999/02/22-rdf-syntax-ns#"
   xmlns:svg="http://www.w3.org/2000/svg"
   xmlns="http://www.w3.org/2000/svg"
   xmlns:sodipodi="http://sodipodi.sourceforge.net/DTD/sodipodi-0.dtd"
   xmlns:inkscape="http://www.inkscape.org/namespaces/inkscape"
   width="800"
   height="480"
   viewBox="0 0 211.66666 127"
   version="1.1"
   id="svg1781"
   inkscape:version="0.92.3 (2405546, 2018-03-11)"
   sodipodi:docname="drawing-2.svg"
   inkscape:export-filename="C:\Users\top\Documents\iotAgriculture\bitmap.png"
   inkscape:export-xdpi="96"
   inkscape:export-ydpi="96">
  <defs
     id="defs1775">
    <filter
       inkscape:collect="always"
       style="color-interpolation-filters:sRGB"
       id="filter1220"
       x="-0.083999999"
       width="1.168"
       y="-0.083999999"
       height="1.168">
      <feGaussianBlur
         inkscape:collect="always"
         stdDeviation="0.38893751"
         id="feGaussianBlur1222" />
    </filter>
    <filter
       inkscape:collect="always"
       style="color-interpolation-filters:sRGB"
       id="filter994"
       x="-0.020391608"
       width="1.0407832"
       y="-0.02916"
       height="1.05832">
      <feGaussianBlur
         inkscape:collect="always"
         stdDeviation="0.59738674"
         id="feGaussianBlur996" />
    </filter>
    <filter
       inkscape:collect="always"
       style="color-interpolation-filters:sRGB"
       id="filter851"
       x="-0.034105785"
       width="1.0682116"
       y="-0.24920282"
       height="1.4984056">
      <feGaussianBlur
         inkscape:collect="always"
         stdDeviation="0.63810057"
         id="feGaussianBlur853" />
    </filter>
  </defs>
  <sodipodi:namedview
     id="base"
     pagecolor="#ffffff"
     bordercolor="#666666"
     borderopacity="1.0"
     inkscape:pageopacity="0.0"
     inkscape:pageshadow="2"
     inkscape:zoom="0.96785241"
     inkscape:cx="365.63278"
     inkscape:cy="241.97416"
     inkscape:document-units="px"
     inkscape:current-layer="layer1"
     showgrid="false"
     units="px"
     inkscape:window-width="1600"
     inkscape:window-height="837"
     inkscape:window-x="-8"
     inkscape:window-y="-8"
     inkscape:window-maximized="1" />
  <metadata
     id="metadata1778">
    <rdf:RDF>
      <cc:Work
         rdf:about="">
        <dc:format>image/svg+xml</dc:format>
        <dc:type
           rdf:resource="http://purl.org/dc/dcmitype/StillImage" />
        <dc:title />
      </cc:Work>
    </rdf:RDF>
  </metadata>
  <g
     inkscape:label="Layer 1"
     inkscape:groupmode="layer"
     id="layer1"
     transform="translate(0,-169.99998)">
    <rect
       style="opacity:1;fill:#8e44ad;fill-opacity:1;stroke:#2c3e50;stroke-width:2.60243678;stroke-linecap:round;stroke-linejoin:round;stroke-miterlimit:4;stroke-dasharray:none;stroke-opacity:1"
       id="rect815"
       width="209.06422"
       height="124.39756"
       x="1.3012184"
       y="171.30119" />
    <circle
       r="5.5562501"
       cy="286.34653"
       cx="200.25014"
       id="circle1182"
       style="opacity:1;fill:#ffffff;fill-opacity:1;stroke:none;stroke-width:1.51208615;stroke-linecap:round;stroke-linejoin:round;stroke-miterlimit:4;stroke-dasharray:none;stroke-opacity:1;filter:url(#filter1220)" />
    <path
       style="opacity:1;fill:#2c3e50;fill-opacity:1;stroke:#2c3e50;stroke-width:2.64583325;stroke-linecap:round;stroke-linejoin:round;stroke-miterlimit:4;stroke-dasharray:none;stroke-opacity:1"
       d="m 39.851313,172.11666 c -0.105365,0.35783 -0.163814,0.73576 -0.163814,1.12861 0,2.19869 1.770063,3.96875 3.96875,3.96875 H 168.01041 c 2.19869,0 3.96875,-1.77006 3.96875,-3.96875 0,-0.39285 -0.0584,-0.77078 -0.16381,-1.12861 z"
       id="rect893"
       inkscape:connector-curvature="0" />
    <g
       id="g910"
       transform="translate(3.2686615e-7,0.52917017)">
      <text
         xml:space="preserve"
         style="font-style:normal;font-weight:normal;font-size:6.3499999px;line-height:1.25;font-family:sans-serif;letter-spacing:0px;word-spacing:0px;fill:#ffffff;fill-opacity:1;stroke:none;stroke-width:0.26458332;filter:url(#filter851)"
         x="83.831573"
         y="175.31009"
         id="text829"><tspan
           sodipodi:role="line"
           id="tspan827"
           x="83.831573"
           y="175.31009"
           style="fill:#ffffff;stroke-width:0.26458332">Agriculture iot</tspan></text>
      <text
         id="text825"
         y="175.31009"
         x="83.831573"
         style="font-style:normal;font-weight:normal;font-size:6.3499999px;line-height:1.25;font-family:sans-serif;letter-spacing:0px;word-spacing:0px;fill:#ffffff;fill-opacity:1;stroke:#2c3e50;stroke-width:0.02645833;stroke-miterlimit:4;stroke-dasharray:none;stroke-opacity:1"
         xml:space="preserve"><tspan
           style="fill:#ffffff;stroke:#2c3e50;stroke-width:0.02645833;stroke-miterlimit:4;stroke-dasharray:none;stroke-opacity:1"
           y="175.31009"
           x="83.831573"
           id="tspan823"
           sodipodi:role="line">Agriculture iot</tspan></text>
    </g>
    <text
       id="text904"
       y="176.89757"
       x="11.864845"
       style="font-style:normal;font-weight:normal;font-size:6.3499999px;line-height:1.25;font-family:sans-serif;letter-spacing:0px;word-spacing:0px;fill:#ffffff;fill-opacity:1;stroke:none;stroke-width:0.02645833;stroke-miterlimit:4;stroke-dasharray:none;stroke-opacity:1"
       xml:space="preserve"><tspan
         style="font-size:4.93888903px;fill:#ffffff;stroke:none;stroke-width:0.02645833;stroke-miterlimit:4;stroke-dasharray:none;stroke-opacity:1"
         y="176.89757"
         x="11.864845"
         id="tspan902"
         sodipodi:role="line">10:10</tspan></text>
    <text
       xml:space="preserve"
       style="font-style:normal;font-weight:normal;font-size:6.3499999px;line-height:1.25;font-family:sans-serif;letter-spacing:0px;word-spacing:0px;fill:#ffffff;fill-opacity:1;stroke:none;stroke-width:0.02645833;stroke-miterlimit:4;stroke-dasharray:none;stroke-opacity:1"
       x="180.90559"
       y="176.36841"
       id="text914"><tspan
         sodipodi:role="line"
         id="tspan912"
         x="180.90559"
         y="176.36841"
         style="font-size:4.93888903px;fill:#ffffff;stroke:none;stroke-width:0.02645833;stroke-miterlimit:4;stroke-dasharray:none;stroke-opacity:1">sensor: 2</tspan></text>
    <circle
       style="opacity:1;fill:#ffffff;fill-opacity:1;stroke:none;stroke-width:1.51208615;stroke-linecap:round;stroke-linejoin:round;stroke-miterlimit:4;stroke-dasharray:none;stroke-opacity:1"
       id="path1114"
       cx="200.25012"
       cy="285.81735"
       r="5.5562501" />
    <g
       id="g2730"
       transform="matrix(0.79624587,0,0,0.7244048,-48.10687,44.63684)">
      <rect
         style="opacity:1;fill:#ffffff;fill-opacity:1;stroke:none;stroke-width:0.02862723;stroke-linecap:round;stroke-linejoin:round;stroke-miterlimit:4;stroke-dasharray:none;stroke-opacity:1;filter:url(#filter994)"
         id="rect988"
         width="70.309715"
         height="49.167633"
         x="71.207634"
         y="190.66562" />
      <rect
         y="190.13646"
         x="70.678467"
         height="49.167633"
         width="70.309715"
         id="rect916"
         style="opacity:1;fill:#2c3e50;fill-opacity:1;stroke:none;stroke-width:0.02862723;stroke-linecap:round;stroke-linejoin:round;stroke-miterlimit:4;stroke-dasharray:none;stroke-opacity:1" />
      <text
         xml:space="preserve"
         style="font-style:normal;font-weight:normal;font-size:6.3499999px;line-height:1.25;font-family:sans-serif;letter-spacing:0px;word-spacing:0px;fill:#000000;fill-opacity:1;stroke:none;stroke-width:0.26458332"
         x="105.81782"
         y="212.48476"
         id="text1335"><tspan
           sodipodi:role="line"
           id="tspan1331"
           x="105.81782"
           y="212.48476"
           style="text-align:center;text-anchor:middle;fill:#ffffff;stroke-width:0.26458332">cam</tspan><tspan
           id="tspan1337"
           sodipodi:role="line"
           x="105.81782"
           y="220.42226"
           style="text-align:center;text-anchor:middle;fill:#ffffff;stroke-width:0.26458332">not connection</tspan><tspan
           sodipodi:role="line"
           x="105.81782"
           y="228.35976"
           style="text-align:center;text-anchor:middle;fill:#ffffff;stroke-width:0.26458332"
           id="tspan1333" /></text>
    </g>
    <rect
       y="180.50771"
       x="139.3533"
       height="95.454208"
       width="65.19825"
       id="rect924"
       style="opacity:1;fill:#2c3e50;fill-opacity:1;stroke:none;stroke-width:1.63784015;stroke-linecap:round;stroke-linejoin:round;stroke-miterlimit:4;stroke-dasharray:none;stroke-opacity:1"
       ry="1.6457622" />
    <rect
       style="opacity:1;fill:#e67e22;fill-opacity:1;stroke:none;stroke-width:2.20399666;stroke-linecap:round;stroke-linejoin:round;stroke-miterlimit:4;stroke-dasharray:none;stroke-opacity:1"
       id="rect926"
       width="26.079302"
       height="15.643115"
       x="143.83765"
       y="194.78416"
       ry="2.2152505" />
    <rect
       ry="2.2152505"
       y="194.78416"
       x="174.48041"
       height="15.643115"
       width="26.079302"
       id="rect928"
       style="opacity:1;fill:#e67e22;fill-opacity:1;stroke:none;stroke-width:2.20399666;stroke-linecap:round;stroke-linejoin:round;stroke-miterlimit:4;stroke-dasharray:none;stroke-opacity:1" />
    <rect
       ry="2.2152505"
       y="212.92993"
       x="143.83765"
       height="15.643115"
       width="26.079302"
       id="rect930"
       style="opacity:1;fill:#e67e22;fill-opacity:1;stroke:none;stroke-width:2.20399666;stroke-linecap:round;stroke-linejoin:round;stroke-miterlimit:4;stroke-dasharray:none;stroke-opacity:1" />
    <rect
       style="opacity:1;fill:#e67e22;fill-opacity:1;stroke:none;stroke-width:2.20399666;stroke-linecap:round;stroke-linejoin:round;stroke-miterlimit:4;stroke-dasharray:none;stroke-opacity:1"
       id="rect932"
       width="26.079302"
       height="15.643115"
       x="174.48041"
       y="212.92993"
       ry="2.2152505" />
    <rect
       style="opacity:1;fill:#e67e22;fill-opacity:1;stroke:none;stroke-width:2.20399666;stroke-linecap:round;stroke-linejoin:round;stroke-miterlimit:4;stroke-dasharray:none;stroke-opacity:1"
       id="rect934"
       width="26.079302"
       height="15.643115"
       x="143.83765"
       y="231.0757"
       ry="2.2152505" />
    <rect
       ry="2.2152505"
       y="231.0757"
       x="174.48041"
       height="15.643115"
       width="26.079302"
       id="rect936"
       style="opacity:1;fill:#e67e22;fill-opacity:1;stroke:none;stroke-width:2.20399666;stroke-linecap:round;stroke-linejoin:round;stroke-miterlimit:4;stroke-dasharray:none;stroke-opacity:1" />
    <ellipse
       style="opacity:1;fill:#d35400;fill-opacity:1;stroke:none;stroke-width:1.75700688;stroke-linecap:round;stroke-linejoin:round;stroke-miterlimit:4;stroke-dasharray:none;stroke-opacity:1"
       id="path1224"
       cx="156.36113"
       cy="260.38049"
       rx="4.8923941"
       ry="6.8638802" />
    <g
       id="g2836"
       transform="matrix(0.68484961,0,0,1.3517776,79.095683,-105.32995)">
      <path
         inkscape:connector-curvature="0"
         id="path1226"
         d="m 124.18955,270.51109 -9.52009,-6.51237"
         style="fill:#2980b9;stroke:#2980b9;stroke-width:1.18108594;stroke-linecap:round;stroke-linejoin:miter;stroke-miterlimit:4;stroke-dasharray:none;stroke-opacity:1" />
      <path
         inkscape:connector-curvature="0"
         id="path1228"
         d="m 114.66946,277.02348 9.52009,-6.51239"
         style="fill:#2980b9;stroke:#2980b9;stroke-width:1.18108594;stroke-linecap:round;stroke-linejoin:miter;stroke-miterlimit:4;stroke-dasharray:none;stroke-opacity:1" />
    </g>
    <path
       style="fill:#2980b9;stroke:#2980b9;stroke-width:0.9640215;stroke-linecap:butt;stroke-linejoin:miter;stroke-miterlimit:4;stroke-dasharray:none;stroke-opacity:1"
       d="m 164.14687,260.34091 h 8.53156"
       id="path1230"
       inkscape:connector-curvature="0" />
    <path
       style="fill:#2980b9;stroke:#2980b9;stroke-width:0.96058047;stroke-linecap:butt;stroke-linejoin:miter;stroke-miterlimit:4;stroke-dasharray:none;stroke-opacity:1"
       d="m 172.19879,201.46179 v 59.35412"
       id="path1232"
       inkscape:connector-curvature="0" />
    <path
       style="fill:none;stroke:#2980b9;stroke-width:1.31740332;stroke-linecap:round;stroke-linejoin:miter;stroke-miterlimit:4;stroke-dasharray:none;stroke-opacity:1"
       d="m 167.93865,201.11073 h 8.51894"
       id="path1234"
       inkscape:connector-curvature="0" />
    <path
       inkscape:connector-curvature="0"
       id="path1245"
       d="m 167.93865,220.50831 h 8.51894"
       style="fill:none;stroke:#2980b9;stroke-width:1.31740332;stroke-linecap:round;stroke-linejoin:miter;stroke-miterlimit:4;stroke-dasharray:none;stroke-opacity:1" />
    <path
       style="fill:none;stroke:#2980b9;stroke-width:1.31740332;stroke-linecap:round;stroke-linejoin:miter;stroke-miterlimit:4;stroke-dasharray:none;stroke-opacity:1"
       d="m 167.93865,238.65443 h 8.51894"
       id="path1247"
       inkscape:connector-curvature="0" />
    <ellipse
       cy="251.54424"
       cx="191.18747"
       id="circle1249"
       style="opacity:1;fill:#d35400;fill-opacity:1;stroke:none;stroke-width:0.3193593;stroke-linecap:round;stroke-linejoin:round;stroke-miterlimit:4;stroke-dasharray:none;stroke-opacity:1"
       rx="4.8898692"
       ry="1.8771738" />
    <rect
       style="opacity:1;fill:#d35400;fill-opacity:1;stroke:none;stroke-width:2.52939725;stroke-linecap:round;stroke-linejoin:miter;stroke-miterlimit:4;stroke-dasharray:none;stroke-opacity:1"
       id="rect1251"
       width="9.7797384"
       height="17.068954"
       x="186.29761"
       y="251.54424"
       ry="0" />
    <g
       id="g1325"
       transform="matrix(0.01427195,0,0,0.01397705,187.92764,256.35047)"
       style="fill:#f1c40f">
      <g
         id="g1267"
         style="fill:#f1c40f">
        <g
           id="g1265"
           style="fill:#f1c40f">
          <path
             id="path1261"
             d="m 451.383,247.54 c -3.606,-3.617 -7.898,-5.427 -12.847,-5.427 h -63.953 v -83.939 l 49.396,-49.394 c 3.614,-3.615 5.428,-7.898 5.428,-12.85 0,-4.947 -1.813,-9.229 -5.428,-12.847 -3.614,-3.616 -7.898,-5.424 -12.847,-5.424 -4.949,0 -9.233,1.809 -12.847,5.424 l -49.396,49.394 H 107.923 L 58.529,83.083 c -3.617,-3.616 -7.898,-5.424 -12.847,-5.424 -4.952,0 -9.233,1.809 -12.85,5.424 -3.617,3.617 -5.424,7.9 -5.424,12.847 0,4.952 1.807,9.235 5.424,12.85 l 49.394,49.394 v 83.939 H 18.273 c -4.949,0 -9.231,1.81 -12.847,5.427 C 1.809,251.154 0,255.442 0,260.387 c 0,4.949 1.809,9.237 5.426,12.848 3.616,3.617 7.898,5.431 12.847,5.431 h 63.953 c 0,30.447 5.522,56.53 16.56,78.224 l -57.67,64.809 c -3.237,3.81 -4.712,8.234 -4.425,13.275 0.284,5.037 2.235,9.273 5.852,12.703 3.617,3.045 7.707,4.571 12.275,4.571 5.33,0 9.897,-1.991 13.706,-5.995 l 52.246,-59.102 4.285,4.004 c 2.664,2.479 6.801,5.564 12.419,9.274 5.617,3.71 11.897,7.423 18.842,11.143 6.95,3.71 15.23,6.852 24.84,9.418 9.614,2.573 19.273,3.86 28.98,3.86 V 169.034 h 36.547 V 424.85 c 9.134,0 18.363,-1.239 27.688,-3.717 9.328,-2.471 17.135,-5.232 23.418,-8.278 6.275,-3.049 12.47,-6.519 18.555,-10.42 6.092,-3.901 10.089,-6.612 11.991,-8.138 1.909,-1.526 3.333,-2.762 4.284,-3.71 l 56.534,56.243 c 3.433,3.617 7.707,5.424 12.847,5.424 5.141,0 9.422,-1.807 12.854,-5.424 3.607,-3.617 5.421,-7.902 5.421,-12.851 0,-4.949 -1.813,-9.232 -5.421,-12.847 l -59.388,-59.669 c 12.755,-22.651 19.13,-50.251 19.13,-82.796 h 63.953 c 4.949,0 9.236,-1.81 12.847,-5.427 3.614,-3.614 5.432,-7.898 5.432,-12.847 0,-4.948 -1.817,-9.235 -5.445,-12.853 z"
             inkscape:connector-curvature="0"
             style="fill:#f1c40f" />
          <path
             id="path1263"
             d="M 293.081,31.27 C 275.286,13.475 253.729,4.574 228.414,4.574 c -25.319,0 -46.87,8.901 -64.668,26.696 -17.795,17.797 -26.691,39.353 -26.691,64.667 h 182.716 c 0,-25.31 -8.895,-46.87 -26.69,-64.667 z"
             inkscape:connector-curvature="0"
             style="fill:#f1c40f" />
        </g>
      </g>
      <g
         id="g1269"
         style="fill:#f1c40f" />
      <g
         id="g1271"
         style="fill:#f1c40f" />
      <g
         id="g1273"
         style="fill:#f1c40f" />
      <g
         id="g1275"
         style="fill:#f1c40f" />
      <g
         id="g1277"
         style="fill:#f1c40f" />
      <g
         id="g1279"
         style="fill:#f1c40f" />
      <g
         id="g1281"
         style="fill:#f1c40f" />
      <g
         id="g1283"
         style="fill:#f1c40f" />
      <g
         id="g1285"
         style="fill:#f1c40f" />
      <g
         id="g1287"
         style="fill:#f1c40f" />
      <g
         id="g1289"
         style="fill:#f1c40f" />
      <g
         id="g1291"
         style="fill:#f1c40f" />
      <g
         id="g1293"
         style="fill:#f1c40f" />
      <g
         id="g1295"
         style="fill:#f1c40f" />
      <g
         id="g1297"
         style="fill:#f1c40f" />
    </g>
    <path
       style="fill:none;stroke:#2980b9;stroke-width:0.95807797;stroke-linecap:round;stroke-linejoin:miter;stroke-miterlimit:4;stroke-dasharray:none;stroke-opacity:1"
       d="m 172.63044,257.09123 h 13.6004"
       id="path1327"
       inkscape:connector-curvature="0" />
    <text
       xml:space="preserve"
       style="font-style:normal;font-weight:normal;font-size:7.66462374px;line-height:1.25;font-family:sans-serif;letter-spacing:0px;word-spacing:0px;fill:#000000;fill-opacity:1;stroke:none;stroke-width:0.3193593"
       x="151.18028"
       y="209.6068"
       id="text1377"
       transform="scale(1.0207664,0.97965608)"><tspan
         sodipodi:role="line"
         id="tspan1375"
         x="151.18028"
         y="209.6068"
         style="fill:#ffffff;stroke-width:0.3193593">1</tspan></text>
    <text
       id="text1405"
       y="209.6068"
       x="181.19963"
       style="font-style:normal;font-weight:normal;font-size:7.66462374px;line-height:1.25;font-family:sans-serif;letter-spacing:0px;word-spacing:0px;fill:#000000;fill-opacity:1;stroke:none;stroke-width:0.3193593"
       xml:space="preserve"
       transform="scale(1.0207664,0.97965608)"><tspan
         style="fill:#ffffff;stroke-width:0.3193593"
         y="209.6068"
         x="181.19963"
         id="tspan1403"
         sodipodi:role="line">2</tspan></text>
    <text
       xml:space="preserve"
       style="font-style:normal;font-weight:normal;font-size:7.66462374px;line-height:1.25;font-family:sans-serif;letter-spacing:0px;word-spacing:0px;fill:#000000;fill-opacity:1;stroke:none;stroke-width:0.3193593"
       x="151.18028"
       y="228.12938"
       id="text1409"
       transform="scale(1.0207664,0.97965608)"><tspan
         sodipodi:role="line"
         id="tspan1407"
         x="151.18028"
         y="228.12938"
         style="fill:#ffffff;stroke-width:0.3193593">3</tspan></text>
    <text
       id="text1413"
       y="228.12938"
       x="181.19963"
       style="font-style:normal;font-weight:normal;font-size:7.66462374px;line-height:1.25;font-family:sans-serif;letter-spacing:0px;word-spacing:0px;fill:#000000;fill-opacity:1;stroke:none;stroke-width:0.3193593"
       xml:space="preserve"
       transform="scale(1.0207664,0.97965608)"><tspan
         style="fill:#ffffff;stroke-width:0.3193593"
         y="228.12938"
         x="181.19963"
         id="tspan1411"
         sodipodi:role="line">4</tspan></text>
    <text
       xml:space="preserve"
       style="font-style:normal;font-weight:normal;font-size:7.66462374px;line-height:1.25;font-family:sans-serif;letter-spacing:0px;word-spacing:0px;fill:#000000;fill-opacity:1;stroke:none;stroke-width:0.3193593"
       x="181.19963"
       y="246.65196"
       id="text1417"
       transform="scale(1.0207664,0.97965608)"><tspan
         sodipodi:role="line"
         id="tspan1415"
         x="181.19963"
         y="246.65196"
         style="fill:#ffffff;stroke-width:0.3193593">6</tspan></text>
    <text
       id="text1425"
       y="246.65196"
       x="151.18028"
       style="font-style:normal;font-weight:normal;font-size:7.66462374px;line-height:1.25;font-family:sans-serif;letter-spacing:0px;word-spacing:0px;fill:#000000;fill-opacity:1;stroke:none;stroke-width:0.3193593"
       xml:space="preserve"
       transform="scale(1.0207664,0.97965608)"><tspan
         style="fill:#ffffff;stroke-width:0.3193593"
         y="246.65196"
         x="151.18028"
         id="tspan1423"
         sodipodi:role="line">5</tspan></text>
    <g
       id="g2722"
       transform="matrix(0.01815768,0,0,0.01815768,194.76204,280.19521)"
       style="fill:#2c3e50">
      <g
         id="g2665"
         style="fill:#2c3e50">
        <g
           id="g2663"
           style="fill:#2c3e50">
          <path
             id="path2661"
             d="m 458.388,230.724 c 0,-3.672 -1.428,-6.528 -4.284,-8.568 L 313.344,113.22 c -4.08,-3.264 -8.568,-3.264 -13.464,0 L 164.016,222.156 c -2.448,2.04 -3.672,4.896 -3.672,8.568 v 196.452 c 0,3.267 1.02,5.916 3.06,7.956 2.04,2.04 4.488,3.063 7.344,3.063 h 80.784 c 3.264,0 5.916,-1.021 7.956,-3.063 2.04,-2.04 3.06,-4.689 3.06,-7.956 V 306.613 h 93.024 v 120.562 c 0,3.267 1.02,5.916 3.06,7.956 2.04,2.04 4.692,3.063 7.956,3.063 h 80.784 c 3.264,0 5.916,-1.021 7.956,-3.063 2.04,-2.042 3.06,-4.689 3.06,-7.956 z M 306,0 c 42.024,0 81.702,8.058 119.034,24.174 37.332,16.116 69.768,37.944 97.308,65.484 27.54,27.54 49.368,59.976 65.484,97.308 C 603.942,224.298 612,263.976 612,306 c 0,28.152 -3.672,55.284 -11.016,81.396 -7.347,26.109 -17.646,50.487 -30.906,73.134 -13.26,22.644 -29.172,43.248 -47.736,61.812 -18.562,18.564 -39.168,34.479 -61.812,47.736 -22.646,13.26 -47.022,23.562 -73.136,30.906 C 361.284,608.328 334.152,612 306,612 277.848,612 250.716,608.328 224.604,600.984 198.492,593.637 174.114,583.338 151.47,570.078 128.826,556.818 108.222,540.906 89.658,522.342 71.094,503.78 55.182,483.174 41.922,460.53 28.662,437.884 18.36,413.508 11.016,387.395 3.672,361.284 0,334.152 0,306 0,277.848 3.672,250.716 11.016,224.604 18.36,198.492 28.662,174.114 41.922,151.47 55.182,128.826 71.094,108.222 89.658,89.658 108.222,71.094 128.826,55.182 151.47,41.922 174.114,28.662 198.492,18.36 224.604,11.016 250.716,3.672 277.848,0 306,0 Z"
             style="fill:#2c3e50"
             inkscape:connector-curvature="0" />
        </g>
      </g>
      <g
         id="g2667"
         style="fill:#2c3e50" />
      <g
         id="g2669"
         style="fill:#2c3e50" />
      <g
         id="g2671"
         style="fill:#2c3e50" />
      <g
         id="g2673"
         style="fill:#2c3e50" />
      <g
         id="g2675"
         style="fill:#2c3e50" />
      <g
         id="g2677"
         style="fill:#2c3e50" />
      <g
         id="g2679"
         style="fill:#2c3e50" />
      <g
         id="g2681"
         style="fill:#2c3e50" />
      <g
         id="g2683"
         style="fill:#2c3e50" />
      <g
         id="g2685"
         style="fill:#2c3e50" />
      <g
         id="g2687"
         style="fill:#2c3e50" />
      <g
         id="g2689"
         style="fill:#2c3e50" />
      <g
         id="g2691"
         style="fill:#2c3e50" />
      <g
         id="g2693"
         style="fill:#2c3e50" />
      <g
         id="g2695"
         style="fill:#2c3e50" />
    </g>
    <circle
       style="opacity:1;fill:none;fill-opacity:1;stroke:#ffffff;stroke-width:1.12056279;stroke-linecap:round;stroke-linejoin:miter;stroke-miterlimit:4;stroke-dasharray:none;stroke-opacity:1"
       id="path2838"
       cx="38.61248"
       cy="260.55069"
       r="23.252218" />
    <text
       xml:space="preserve"
       style="font-style:normal;font-weight:normal;font-size:6.3499999px;line-height:1.25;font-family:sans-serif;letter-spacing:0px;word-spacing:0px;fill:#000000;fill-opacity:1;stroke:none;stroke-width:0.26458332"
       x="36.593998"
       y="235.27075"
       id="text915"><tspan
         sodipodi:role="line"
         id="tspan913"
         x="36.593998"
         y="235.27075"
         style="fill:#ffffff;stroke-width:0.26458332">0</tspan></text>
    <text
       id="text919"
       y="262.82031"
       x="62.46933"
       style="font-style:normal;font-weight:normal;font-size:6.3499999px;line-height:1.25;font-family:sans-serif;letter-spacing:0px;word-spacing:0px;fill:#000000;fill-opacity:1;stroke:none;stroke-width:0.26458332"
       xml:space="preserve"><tspan
         style="fill:#ffffff;stroke-width:0.26458332"
         y="262.82031"
         x="62.46933"
         id="tspan917"
         sodipodi:role="line">15</tspan></text>
    <text
       xml:space="preserve"
       style="font-style:normal;font-weight:normal;font-size:6.3499999px;line-height:1.25;font-family:sans-serif;letter-spacing:0px;word-spacing:0px;fill:#000000;fill-opacity:1;stroke:none;stroke-width:0.26458332"
       x="34.53986"
       y="291.29431"
       id="text923"><tspan
         sodipodi:role="line"
         id="tspan921"
         x="34.53986"
         y="291.29431"
         style="fill:#ffffff;stroke-width:0.26458332">30</tspan></text>
    <text
       id="text927"
       y="262.86218"
       x="5.4322853"
       style="font-style:normal;font-weight:normal;font-size:6.3499999px;line-height:1.25;font-family:sans-serif;letter-spacing:0px;word-spacing:0px;fill:#000000;fill-opacity:1;stroke:none;stroke-width:0.26458332"
       xml:space="preserve"><tspan
         style="fill:#ffffff;stroke-width:0.26458332"
         y="262.86218"
         x="5.4322853"
         sodipodi:role="line"
         id="tspan929">60</tspan></text>
    <circle
       r="23.252218"
       cy="260.55069"
       cx="106.34587"
       id="circle933"
       style="opacity:1;fill:none;fill-opacity:1;stroke:#ffffff;stroke-width:1.12056279;stroke-linecap:round;stroke-linejoin:miter;stroke-miterlimit:4;stroke-dasharray:none;stroke-opacity:1" />
    <text
       id="text937"
       y="235.27075"
       x="104.32738"
       style="font-style:normal;font-weight:normal;font-size:6.3499999px;line-height:1.25;font-family:sans-serif;letter-spacing:0px;word-spacing:0px;fill:#000000;fill-opacity:1;stroke:none;stroke-width:0.26458332"
       xml:space="preserve"><tspan
         style="fill:#ffffff;stroke-width:0.26458332"
         y="235.27075"
         x="104.32738"
         id="tspan935"
         sodipodi:role="line">0</tspan></text>
    <text
       xml:space="preserve"
       style="font-style:normal;font-weight:normal;font-size:6.3499999px;line-height:1.25;font-family:sans-serif;letter-spacing:0px;word-spacing:0px;fill:#000000;fill-opacity:1;stroke:none;stroke-width:0.26458332"
       x="130.73181"
       y="262.82031"
       id="text941"><tspan
         sodipodi:role="line"
         id="tspan939"
         x="130.73181"
         y="262.82031"
         style="fill:#ffffff;stroke-width:0.26458332">6</tspan></text>
    <text
       id="text945"
       y="291.29431"
       x="102.27325"
       style="font-style:normal;font-weight:normal;font-size:6.3499999px;line-height:1.25;font-family:sans-serif;letter-spacing:0px;word-spacing:0px;fill:#000000;fill-opacity:1;stroke:none;stroke-width:0.26458332"
       xml:space="preserve"><tspan
         style="fill:#ffffff;stroke-width:0.26458332"
         y="291.29431"
         x="102.27325"
         id="tspan943"
         sodipodi:role="line">12</tspan></text>
    <text
       xml:space="preserve"
       style="font-style:normal;font-weight:normal;font-size:6.3499999px;line-height:1.25;font-family:sans-serif;letter-spacing:0px;word-spacing:0px;fill:#000000;fill-opacity:1;stroke:none;stroke-width:0.26458332"
       x="74.753166"
       y="262.86218"
       id="text949"><tspan
         id="tspan947"
         sodipodi:role="line"
         x="74.753166"
         y="262.86218"
         style="fill:#ffffff;stroke-width:0.26458332">18</tspan></text>
    <path
       style="fill:#8e44ad;stroke:#34495e;stroke-width:0.26458332px;stroke-linecap:butt;stroke-linejoin:miter;stroke-opacity:1"
       d="m 72.496194,228.65709 v 62.60209"
       id="path951"
       inkscape:connector-curvature="0" />
    <rect
       ry="0.20820484"
       style="opacity:1;fill:#2c3e50;fill-opacity:1;stroke:none;stroke-width:0.58255023;stroke-linecap:round;stroke-linejoin:round;stroke-miterlimit:4;stroke-dasharray:none;stroke-opacity:1"
       id="rect953"
       width="65.19825"
       height="12.075881"
       x="69.867409"
       y="182.75594" />
    <rect
       y="204.88585"
       x="69.867409"
       height="12.075881"
       width="65.19825"
       id="rect955"
       style="opacity:1;fill:#2c3e50;fill-opacity:1;stroke:none;stroke-width:0.58255023;stroke-linecap:round;stroke-linejoin:round;stroke-miterlimit:4;stroke-dasharray:none;stroke-opacity:1"
       ry="0.20820484" />
    <circle
       style="opacity:1;fill:#2c3e50;fill-opacity:1;stroke:none;stroke-width:1.32291663;stroke-linecap:round;stroke-linejoin:round;stroke-miterlimit:4;stroke-dasharray:none;stroke-opacity:1"
       id="path957"
       cx="38.61248"
       cy="260.55069"
       r="0.79374999" />
    <circle
       r="0.79374999"
       cy="260.55069"
       cx="106.34587"
       id="circle959"
       style="opacity:1;fill:#2c3e50;fill-opacity:1;stroke:none;stroke-width:1.32291663;stroke-linecap:round;stroke-linejoin:round;stroke-miterlimit:4;stroke-dasharray:none;stroke-opacity:1" />
  </g>
</svg>
