<?xml version="1.0" encoding="UTF-8" standalone="no"?>
<!-- Created with Inkscape (http://www.inkscape.org/) -->

<svg
   xmlns:dc="http://purl.org/dc/elements/1.1/"
   xmlns:cc="http://creativecommons.org/ns#"
   xmlns:rdf="http://www.w3.org/1999/02/22-rdf-syntax-ns#"
   xmlns:svg="http://www.w3.org/2000/svg"
   xmlns="http://www.w3.org/2000/svg"
   xmlns:sodipodi="http://sodipodi.sourceforge.net/DTD/sodipodi-0.dtd"
   xmlns:inkscape="http://www.inkscape.org/namespaces/inkscape"
   width="800"
   height="480"
   viewBox="0 0 211.66667 127"
   version="1.1"
   id="svg8"
   inkscape:version="0.92.3 (2405546, 2018-03-11)"
   sodipodi:docname="drawing.svg"
   inkscape:export-filename="C:\Users\top\Documents\iotAgriculture\bitmap.png"
   inkscape:export-xdpi="96"
   inkscape:export-ydpi="96">
  <defs
     id="defs2">
    <filter
       inkscape:collect="always"
       style="color-interpolation-filters:sRGB"
       id="filter885"
       x="-0.024"
       width="1.048"
       y="-0.024"
       height="1.048">
      <feGaussianBlur
         inkscape:collect="always"
         stdDeviation="0.26458334"
         id="feGaussianBlur887" />
    </filter>
    <filter
       inkscape:collect="always"
       style="color-interpolation-filters:sRGB"
       id="filter1017"
       x="-0.022434783"
       width="1.0448696"
       y="-0.0258"
       height="1.0516">
      <feGaussianBlur
         inkscape:collect="always"
         stdDeviation="0.56885418"
         id="feGaussianBlur1019" />
    </filter>
    <filter
       inkscape:collect="always"
       style="color-interpolation-filters:sRGB"
       id="filter1027"
       x="-0.020641115"
       width="1.0412822"
       y="-0.028664516"
       height="1.057329">
      <feGaussianBlur
         inkscape:collect="always"
         stdDeviation="0.52337412"
         id="feGaussianBlur1029" />
    </filter>
    <filter
       inkscape:collect="always"
       style="color-interpolation-filters:sRGB"
       id="filter1392"
       x="-0.048"
       width="1.096"
       y="-0.048"
       height="1.096">
      <feGaussianBlur
         inkscape:collect="always"
         stdDeviation="0.3175"
         id="feGaussianBlur1394" />
    </filter>
    <filter
       inkscape:collect="always"
       style="color-interpolation-filters:sRGB"
       id="filter1422"
       x="-0.048"
       width="1.096"
       y="-0.048"
       height="1.096">
      <feGaussianBlur
         inkscape:collect="always"
         stdDeviation="0.3175"
         id="feGaussianBlur1424" />
    </filter>
    <filter
       inkscape:collect="always"
       style="color-interpolation-filters:sRGB"
       id="filter1460"
       x="-0.019698096"
       width="1.0393962"
       y="-0.030705924"
       height="1.0614118">
      <feGaussianBlur
         inkscape:collect="always"
         stdDeviation="0.67702299"
         id="feGaussianBlur1462" />
    </filter>
  </defs>
  <sodipodi:namedview
     id="base"
     pagecolor="#ffffff"
     bordercolor="#666666"
     borderopacity="1.0"
     inkscape:pageopacity="0.0"
     inkscape:pageshadow="2"
     inkscape:zoom="1.07625"
     inkscape:cx="400"
     inkscape:cy="232.17748"
     inkscape:document-units="mm"
     inkscape:current-layer="layer1"
     showgrid="false"
     units="px"
     inkscape:window-width="1366"
     inkscape:window-height="705"
     inkscape:window-x="-8"
     inkscape:window-y="-8"
     inkscape:window-maximized="1"
     inkscape:snap-intersection-paths="true"
     inkscape:object-paths="true" />
  <metadata
     id="metadata5">
    <rdf:RDF>
      <cc:Work
         rdf:about="">
        <dc:format>image/svg+xml</dc:format>
        <dc:type
           rdf:resource="http://purl.org/dc/dcmitype/StillImage" />
        <dc:title></dc:title>
      </cc:Work>
    </rdf:RDF>
  </metadata>
  <g
     inkscape:label="Layer 1"
     inkscape:groupmode="layer"
     id="layer1"
     transform="translate(0,-170.00001)">
    <rect
       style="opacity:1;fill:#7f8c8d;fill-opacity:1;stroke:none;stroke-width:4.67676973;stroke-linecap:round;stroke-linejoin:round;stroke-miterlimit:4;stroke-dasharray:none;stroke-opacity:1"
       id="rect829"
       width="211.66667"
       height="127"
       x="0"
       y="170.00003"
       rx="3.96875" />
    <rect
       style="opacity:1;fill:#ecf0f1;fill-opacity:1;stroke:none;stroke-width:1.21098101;stroke-linecap:round;stroke-linejoin:round;stroke-miterlimit:4;stroke-dasharray:none;stroke-opacity:1"
       id="rect831"
       width="206.375"
       height="113.77084"
       x="2.6458333"
       y="180.58333"
       rx="1" />
    <rect
       rx="0.1025641"
       y="180.58333"
       x="187.85417"
       height="113.77084"
       width="21.166666"
       id="rect833"
       style="opacity:1;fill:#1abc9c;fill-opacity:1;stroke:none;stroke-width:0.3878243;stroke-linecap:round;stroke-linejoin:round;stroke-miterlimit:4;stroke-dasharray:none;stroke-opacity:1" />
    <g
       id="g849"
       transform="translate(-78.845877)">
      <text
         xml:space="preserve"
         style="font-style:normal;font-weight:normal;font-size:6.3499999px;line-height:1.25;font-family:sans-serif;letter-spacing:0px;word-spacing:0px;fill:#000000;fill-opacity:1;stroke:none;stroke-width:0.26458332"
         x="82.357765"
         y="177.3143"
         id="text843"><tspan
           sodipodi:role="line"
           id="tspan841"
           x="82.357765"
           y="177.3143"
           style="fill:#000000;stroke-width:0.26458332">IOT Agriculture</tspan></text>
      <text
         id="text839"
         y="176.78514"
         x="81.828598"
         style="font-style:normal;font-weight:normal;font-size:6.3499999px;line-height:1.25;font-family:sans-serif;letter-spacing:0px;word-spacing:0px;fill:#000000;fill-opacity:1;stroke:none;stroke-width:0.26458332"
         xml:space="preserve"><tspan
           style="fill:#ffffff;stroke-width:0.26458332"
           y="176.78514"
           x="81.828598"
           id="tspan837"
           sodipodi:role="line">IOT Agriculture</tspan></text>
    </g>
    <rect
       y="186.83948"
       x="11.346045"
       height="52.916668"
       width="82.48793"
       id="rect1430"
       style="opacity:1;fill:#ffffff;fill-opacity:1;stroke:none;stroke-width:1.20623195;stroke-linecap:round;stroke-linejoin:round;stroke-miterlimit:4;stroke-dasharray:none;stroke-opacity:1;filter:url(#filter1460)" />
    <rect
       style="opacity:1;fill:#000000;fill-opacity:1;stroke:none;stroke-width:1.20623195;stroke-linecap:round;stroke-linejoin:round;stroke-miterlimit:4;stroke-dasharray:none;stroke-opacity:1"
       id="rect851"
       width="82.48793"
       height="52.916668"
       x="10.816879"
       y="186.31032" />
    <rect
       style="opacity:1;fill:#000000;fill-opacity:1;stroke:none;stroke-width:0.94280958;stroke-linecap:round;stroke-linejoin:round;stroke-miterlimit:4;stroke-dasharray:none;stroke-opacity:1;filter:url(#filter1027)"
       id="rect1021"
       width="60.854168"
       height="43.820656"
       x="108.16762"
       y="245.5948" />
    <rect
       y="245.06564"
       x="107.63845"
       height="43.820656"
       width="60.854168"
       id="rect855"
       style="opacity:1;fill:#ffffff;fill-opacity:1;stroke:none;stroke-width:0.94280958;stroke-linecap:round;stroke-linejoin:round;stroke-miterlimit:4;stroke-dasharray:none;stroke-opacity:1" />
    <rect
       style="opacity:1;fill:#000000;fill-opacity:1;stroke:none;stroke-width:1.0360502;stroke-linecap:round;stroke-linejoin:round;stroke-miterlimit:4;stroke-dasharray:none;stroke-opacity:1;filter:url(#filter1017)"
       id="rect1003"
       width="60.854168"
       height="52.916668"
       x="108.18362"
       y="186.83948" />
    <rect
       y="186.31032"
       x="107.65446"
       height="52.916668"
       width="60.854168"
       id="rect857"
       style="opacity:1;fill:#ffffff;fill-opacity:1;stroke:none;stroke-width:1.0360502;stroke-linecap:round;stroke-linejoin:round;stroke-miterlimit:4;stroke-dasharray:none;stroke-opacity:1" />
    <circle
       r="13.229167"
       cy="263.48062"
       cx="31.852646"
       id="circle871"
       style="opacity:1;fill:#000000;fill-opacity:1;stroke:none;stroke-width:1;stroke-linecap:round;stroke-linejoin:round;stroke-miterlimit:4;stroke-dasharray:none;stroke-opacity:1;filter:url(#filter885)" />
    <circle
       style="opacity:1;fill:#2ecc71;fill-opacity:1;stroke:none;stroke-width:1;stroke-linecap:round;stroke-linejoin:round;stroke-miterlimit:4;stroke-dasharray:none;stroke-opacity:1"
       id="path859"
       cx="31.323479"
       cy="262.95145"
       r="13.229167" />
    <path
       id="circle865"
       style="opacity:1;fill:none;fill-opacity:1;stroke:#ffffff;stroke-width:0.86712545;stroke-linecap:round;stroke-linejoin:round;stroke-miterlimit:4;stroke-dasharray:none;stroke-opacity:1"
       sodipodi:type="arc"
       sodipodi:cx="31.324087"
       sodipodi:cy="262.95135"
       sodipodi:rx="11.472071"
       sodipodi:ry="11.470622"
       sodipodi:start="0"
       sodipodi:end="5.741898"
       sodipodi:open="true"
       d="m 42.796158,262.95135 a 11.472071,11.470622 0 0 1 -9.924383,11.36576 11.472071,11.470622 0 0 1 -12.602164,-8.29906 11.472071,11.470622 0 0 1 6.524087,-13.605 11.472071,11.470622 0 0 1 14.362483,4.62819" />
    <text
       xml:space="preserve"
       style="font-style:normal;font-weight:normal;font-size:6.3499999px;line-height:1.25;font-family:sans-serif;letter-spacing:0px;word-spacing:0px;fill:#ffffff;fill-opacity:1;stroke:none;stroke-width:0.26458332;"
       x="23.227844"
       y="265.26294"
       id="text869"><tspan
         sodipodi:role="line"
         id="tspan867"
         x="23.227844"
         y="265.26294"
         style="stroke-width:0.26458332;fill:#ffffff;">90 %</tspan></text>
    <text
       xml:space="preserve"
       style="font-style:normal;font-weight:normal;font-size:6.3499999px;line-height:1.25;font-family:sans-serif;letter-spacing:0px;word-spacing:0px;fill:#2980b9;fill-opacity:1;stroke:none;stroke-width:0.26458332;"
       x="18.304497"
       y="285.93729"
       id="text891"><tspan
         sodipodi:role="line"
         id="tspan889"
         x="18.304497"
         y="285.93729"
         style="stroke-width:0.26458332;fill:#2980b9;">Sensor1</tspan></text>
    <circle
       style="opacity:1;fill:#000000;fill-opacity:1;stroke:none;stroke-width:1;stroke-linecap:round;stroke-linejoin:round;stroke-miterlimit:4;stroke-dasharray:none;stroke-opacity:1;filter:url(#filter885)"
       id="circle893"
       cx="73.127686"
       cy="263.48062"
       r="13.229167" />
    <circle
       r="13.229167"
       cy="262.95145"
       cx="72.598518"
       id="circle895"
       style="opacity:1;fill:#2ecc71;fill-opacity:1;stroke:none;stroke-width:1;stroke-linecap:round;stroke-linejoin:round;stroke-miterlimit:4;stroke-dasharray:none;stroke-opacity:1" />
    <path
       d="m 84.071192,262.95135 a 11.472071,11.470622 0 0 1 -9.924383,11.36576 11.472071,11.470622 0 0 1 -12.602164,-8.29906 11.472071,11.470622 0 0 1 6.524087,-13.605 11.472071,11.470622 0 0 1 14.362483,4.62819"
       sodipodi:open="true"
       sodipodi:end="5.741898"
       sodipodi:start="0"
       sodipodi:ry="11.470622"
       sodipodi:rx="11.472071"
       sodipodi:cy="262.95135"
       sodipodi:cx="72.599121"
       sodipodi:type="arc"
       style="opacity:1;fill:none;fill-opacity:1;stroke:#ffffff;stroke-width:0.86712545;stroke-linecap:round;stroke-linejoin:round;stroke-miterlimit:4;stroke-dasharray:none;stroke-opacity:1"
       id="path897" />
    <text
       id="text901"
       y="265.26294"
       x="64.502884"
       style="font-style:normal;font-weight:normal;font-size:6.3499999px;line-height:1.25;font-family:sans-serif;letter-spacing:0px;word-spacing:0px;fill:#ffffff;fill-opacity:1;stroke:none;stroke-width:0.26458332"
       xml:space="preserve"><tspan
         style="fill:#ffffff;stroke-width:0.26458332"
         y="265.26294"
         x="64.502884"
         id="tspan899"
         sodipodi:role="line">89 %</tspan></text>
    <text
       id="text905"
       y="285.93729"
       x="59.579536"
       style="font-style:normal;font-weight:normal;font-size:6.3499999px;line-height:1.25;font-family:sans-serif;letter-spacing:0px;word-spacing:0px;fill:#2980b9;fill-opacity:1;stroke:none;stroke-width:0.26458332;"
       xml:space="preserve"><tspan
         style="stroke-width:0.26458332;fill:#2980b9;"
         y="285.93729"
         x="59.579536"
         id="tspan903"
         sodipodi:role="line">Sensor2</tspan></text>
    <text
       xml:space="preserve"
       style="font-style:normal;font-weight:normal;font-size:6.3499999px;line-height:1.25;font-family:sans-serif;letter-spacing:0px;word-spacing:0px;fill:#e67e22;fill-opacity:1;stroke:none;stroke-width:0.26458332"
       x="109.7551"
       y="250.8864"
       id="text909"><tspan
         sodipodi:role="line"
         id="tspan907"
         x="109.7551"
         y="250.8864"
         style="fill:#e67e22;stroke-width:0.26458332">weather report</tspan></text>
    <g
       id="g993"
       transform="matrix(0.90407047,0,0,0.82093321,117.16197,254.58067)"
       style="fill:#7f8c8d">
      <g
         id="g929"
         style="fill:#7f8c8d">
	<g
   id="g915"
   style="fill:#7f8c8d">
		<path
   id="path911"
   d="m 25.615,22.324 c -0.276,0 -0.5,-0.224 -0.5,-0.5 0,-0.276 0.224,-0.5 0.5,-0.5 3.555,0 6.446,-2.892 6.446,-6.446 0,-3.553 -2.892,-6.443 -6.446,-6.443 -0.298,0 -0.613,0.026 -0.991,0.083 C 24.41,8.551 24.198,8.439 24.102,8.245 22.558,5.114 19.44,3.17 15.965,3.17 c -4.184,0 -7.804,2.839 -8.804,6.904 -0.056,0.228 -0.278,0.373 -0.498,0.38 L 6.536,10.447 c -0.003,0 -0.006,0 -0.009,0 -3.09,0 -5.527,2.439 -5.527,5.437 0,3 2.441,5.44 5.442,5.44 0.276,0 0.5,0.224 0.5,0.5 0,0.276 -0.224,0.5 -0.5,0.5 C 2.89,22.324 0,19.435 0,15.884 0,12.382 2.81,9.523 6.294,9.444 7.535,5.141 11.455,2.17 15.964,2.17 c 3.738,0 7.104,2.026 8.869,5.311 0.28,-0.031 0.534,-0.046 0.781,-0.046 4.106,0 7.446,3.339 7.446,7.443 0.002,4.106 -3.339,7.446 -7.445,7.446 z"
   inkscape:connector-curvature="0"
   style="fill:#7f8c8d" />

		<path
   id="path913"
   d="m 25.615,22.324 c -0.276,0 -0.5,-0.224 -0.5,-0.5 0,-0.276 0.224,-0.5 0.5,-0.5 3.555,0 6.446,-2.892 6.446,-6.446 0,-3.553 -2.892,-6.443 -6.446,-6.443 -1.862,0 -3.633,0.805 -4.858,2.208 -0.181,0.209 -0.497,0.23 -0.705,0.048 -0.208,-0.181 -0.229,-0.497 -0.048,-0.705 1.414,-1.621 3.459,-2.55 5.611,-2.55 4.106,0 7.446,3.339 7.446,7.443 10e-4,4.105 -3.34,7.445 -7.446,7.445 z"
   inkscape:connector-curvature="0"
   style="fill:#7f8c8d" />

	</g>

	<g
   id="g919"
   style="fill:#7f8c8d">
		<path
   id="path917"
   d="M 8.275,30.892 C 8.224,30.892 8.173,30.884 8.122,30.868 7.859,30.784 7.715,30.502 7.799,30.239 l 0.918,-2.855 c 0.085,-0.263 0.368,-0.407 0.629,-0.323 0.263,0.084 0.408,0.366 0.323,0.629 L 8.751,30.546 C 8.683,30.757 8.486,30.892 8.275,30.892 Z M 10.112,25.18 C 10.061,25.18 10.01,25.172 9.959,25.156 9.696,25.072 9.551,24.79 9.636,24.527 l 0.918,-2.856 c 0.085,-0.263 0.366,-0.405 0.629,-0.323 0.263,0.084 0.407,0.366 0.323,0.629 l -0.918,2.856 c -0.068,0.212 -0.264,0.347 -0.476,0.347 z"
   inkscape:connector-curvature="0"
   style="fill:#7f8c8d" />

	</g>

	<g
   id="g923"
   style="fill:#7f8c8d">
		<path
   id="path921"
   d="m 18.275,30.892 c -0.051,0 -0.102,-0.008 -0.153,-0.024 -0.263,-0.084 -0.407,-0.366 -0.323,-0.629 l 0.918,-2.855 c 0.085,-0.263 0.368,-0.407 0.629,-0.323 0.263,0.084 0.408,0.366 0.323,0.629 l -0.918,2.856 c -0.068,0.211 -0.265,0.346 -0.476,0.346 z m 1.837,-5.712 c -0.051,0 -0.102,-0.008 -0.153,-0.024 -0.263,-0.084 -0.408,-0.366 -0.323,-0.629 l 0.918,-2.856 c 0.085,-0.263 0.366,-0.405 0.629,-0.323 0.263,0.084 0.407,0.366 0.323,0.629 l -0.918,2.856 c -0.068,0.212 -0.264,0.347 -0.476,0.347 z"
   inkscape:connector-curvature="0"
   style="fill:#7f8c8d" />

	</g>

	<g
   id="g927"
   style="fill:#7f8c8d">
		<path
   id="path925"
   d="m 13.275,30.892 c -0.051,0 -0.102,-0.008 -0.153,-0.024 -0.263,-0.084 -0.407,-0.366 -0.323,-0.629 l 0.918,-2.855 c 0.085,-0.263 0.368,-0.407 0.629,-0.323 0.263,0.084 0.408,0.366 0.323,0.629 l -0.918,2.856 c -0.068,0.211 -0.265,0.346 -0.476,0.346 z m 1.837,-5.712 c -0.051,0 -0.102,-0.008 -0.153,-0.024 -0.263,-0.084 -0.408,-0.366 -0.323,-0.629 l 0.918,-2.856 c 0.085,-0.263 0.366,-0.405 0.629,-0.323 0.263,0.084 0.407,0.366 0.323,0.629 l -0.918,2.856 c -0.068,0.212 -0.264,0.347 -0.476,0.347 z"
   inkscape:connector-curvature="0"
   style="fill:#7f8c8d" />

	</g>

</g>
      <g
         id="g931"
         style="fill:#7f8c8d">
</g>
      <g
         id="g933"
         style="fill:#7f8c8d">
</g>
      <g
         id="g935"
         style="fill:#7f8c8d">
</g>
      <g
         id="g937"
         style="fill:#7f8c8d">
</g>
      <g
         id="g939"
         style="fill:#7f8c8d">
</g>
      <g
         id="g941"
         style="fill:#7f8c8d">
</g>
      <g
         id="g943"
         style="fill:#7f8c8d">
</g>
      <g
         id="g945"
         style="fill:#7f8c8d">
</g>
      <g
         id="g947"
         style="fill:#7f8c8d">
</g>
      <g
         id="g949"
         style="fill:#7f8c8d">
</g>
      <g
         id="g951"
         style="fill:#7f8c8d">
</g>
      <g
         id="g953"
         style="fill:#7f8c8d">
</g>
      <g
         id="g955"
         style="fill:#7f8c8d">
</g>
      <g
         id="g957"
         style="fill:#7f8c8d">
</g>
      <g
         id="g959"
         style="fill:#7f8c8d">
</g>
    </g>
    <text
       xml:space="preserve"
       style="font-style:normal;font-weight:normal;font-size:6.3499999px;line-height:1.25;font-family:sans-serif;letter-spacing:0px;word-spacing:0px;fill:#2c3e50;fill-opacity:1;stroke:none;stroke-width:0.26458332"
       x="140.73187"
       y="286.78729"
       id="text997"><tspan
         sodipodi:role="line"
         id="tspan995"
         x="140.73187"
         y="286.78729"
         style="font-size:9.87777805px;fill:#2c3e50;stroke-width:0.26458332">32  C</tspan></text>
    <text
       xml:space="preserve"
       style="font-style:normal;font-weight:normal;font-size:6.3499999px;line-height:1.25;font-family:sans-serif;letter-spacing:0px;word-spacing:0px;fill:#2980b9;fill-opacity:1;stroke:none;stroke-width:0.26458332;"
       x="109.87737"
       y="193.31473"
       id="text1001"><tspan
         sodipodi:role="line"
         id="tspan999"
         x="109.87737"
         y="193.31473"
         style="stroke-width:0.26458332;fill:#2980b9;">Status</tspan></text>
    <path
       style="fill:#1abc9c;stroke-width:0.05993417"
       inkscape:connector-curvature="0"
       d="m 154.88256,228.54203 v -0.6185 c 0,-0.95045 -1.05995,-1.72393 -2.36302,-1.72393 h -2.94438 v -1.44876 h 1.62349 c 1.52372,0 2.7632,-0.90446 2.7632,-2.01608 v -1.259 c 0,-0.38233 -0.42622,-0.69328 -0.95003,-0.69328 h -1.726 c -0.64551,0 -1.23976,0.16297 -1.71066,0.43472 v -1.69572 c 0.0513,-0.025 0.10032,-0.0538 0.14555,-0.087 l 1.22029,-0.89025 c 1.07749,-0.78608 1.07749,-2.06507 0,-2.85115 l -1.22029,-0.89025 c -0.17954,-0.13078 -0.41801,-0.20297 -0.67182,-0.20297 -0.25382,0 -0.49256,0.0722 -0.6721,0.20297 l -1.22029,0.89025 c -1.07721,0.78608 -1.07721,2.06507 0,2.85115 l 1.22029,0.89025 c 0.0455,0.033 0.0943,0.0618 0.14555,0.0868 v 0.27935 c -0.4709,-0.27175 -1.06515,-0.43453 -1.71066,-0.43453 h -1.726 c -0.52381,0 -0.95003,0.31095 -0.95003,0.69309 v 1.2592 c 0,1.11162 1.23975,2.01587 2.76347,2.01587 h 1.62322 v 2.86534 h -3.39637 c -0.29055,0 -0.52627,0.17197 -0.52627,0.38394 0,0.21197 0.23572,0.38394 0.52627,0.38394 h 3.39637 v 0.6095 c 0,0.21197 0.23573,0.38394 0.52627,0.38394 0.29082,0 0.52628,-0.17197 0.52628,-0.38394 v -0.6095 h 2.94438 c 0.7228,0 1.31074,0.42893 1.31074,0.95605 v 0.5989 h -31.87508 v -0.5989 c 0,-0.52712 0.58767,-0.95605 1.31047,-0.95605 h 2.94439 v 0.6095 c 0,0.21217 0.23572,0.38394 0.52627,0.38394 0.29054,0 0.52627,-0.17177 0.52627,-0.38394 v -0.6095 h 10.10387 v 0.6095 c 0,0.21217 0.23573,0.38394 0.52627,0.38394 0.29055,0 0.52627,-0.17177 0.52627,-0.38394 v -0.6095 h 4.30913 c 0.29082,0 0.52627,-0.17177 0.52627,-0.38394 0,-0.21197 -0.23545,-0.38394 -0.52627,-0.38394 h -4.30913 v -1.44876 h 1.6235 c 1.52372,0 2.76347,-0.90446 2.76347,-2.01608 v -1.259 c 0,-0.38233 -0.42622,-0.69328 -0.9503,-0.69328 h -1.72573 c -0.64578,0 -1.24003,0.16297 -1.71094,0.43472 v -1.69572 c 0.0515,-0.025 0.10033,-0.0538 0.14555,-0.087 l 1.22029,-0.89025 c 1.07749,-0.78608 1.07749,-2.06507 0,-2.85115 l -1.22029,-0.89025 c -0.17926,-0.13078 -0.418,-0.20297 -0.67182,-0.20297 -0.25381,0 -0.49228,0.0722 -0.67182,0.20297 l -1.22029,0.89025 c -1.07749,0.78608 -1.07749,2.06507 0,2.85115 l 1.22029,0.89025 c 0.0452,0.033 0.094,0.0618 0.14555,0.0868 v 0.27935 c -0.47118,-0.27175 -1.06515,-0.43453 -1.71093,-0.43453 h -1.72573 c -0.52408,0 -0.95031,0.31095 -0.95031,0.69309 v 1.2592 c 0,1.11162 1.23976,2.01587 2.76348,2.01587 h 1.62349 v 2.86534 h -10.10387 v -1.44896 h 1.62349 c 1.52372,0 2.76348,-0.90446 2.76348,-2.01608 v -1.2588 c 0,-0.38233 -0.42623,-0.69328 -0.95031,-0.69328 h -1.72573 c -0.64578,0 -1.24003,0.16297 -1.71093,0.43473 v -1.69573 c 0.0515,-0.025 0.10032,-0.0538 0.14555,-0.087 l 1.22029,-0.89025 c 1.07749,-0.78608 1.07749,-2.06487 0,-2.85095 l -1.22029,-0.89025 c -0.17954,-0.13098 -0.41801,-0.20317 -0.67182,-0.20317 -0.25382,0 -0.49256,0.0722 -0.67182,0.20317 l -1.22029,0.89025 c -1.07749,0.78608 -1.07749,2.06487 0,2.85095 l 1.22029,0.89025 c 0.0452,0.0332 0.094,0.062 0.14555,0.087 v 0.27935 c -0.47091,-0.27175 -1.06516,-0.43473 -1.71094,-0.43473 h -1.72573 c -0.5238,0 -0.9503,0.31095 -0.9503,0.69329 v 1.259 c 0,1.11162 1.23975,2.01607 2.76347,2.01607 h 1.6235 v 2.86514 h -2.94439 c -1.30307,0 -2.36301,0.77348 -2.36301,1.72393 v 0.6185 c -0.55533,0.0858 -0.97333,0.44592 -0.97333,0.87625 v 1.61914 c 0,0.49412 0.55094,0.89586 1.22797,0.89586 h 4.17536 c 0.32344,0 0.62906,-0.091 0.86013,-0.25636 l 0.99388,-0.71188 c 0.0329,-0.0236 0.0767,-0.0366 0.1228,-0.0366 h 1.94611 c 0.29055,0 0.52627,-0.17197 0.52627,-0.38394 0,-0.21196 -0.23572,-0.38393 -0.52627,-0.38393 h -1.94611 c -0.32371,0 -0.62906,0.0912 -0.86013,0.25655 l -0.99388,0.71169 c -0.0332,0.0236 -0.0768,0.0366 -0.1228,0.0366 h -4.17536 c -0.0968,0 -0.17543,-0.0574 -0.17543,-0.12798 v -1.61914 c 0,-0.0706 0.0787,-0.12797 0.17543,-0.12797 h 33.47089 c 0.0968,0 0.17542,0.0574 0.17542,0.12797 v 1.61914 c 0,0.0706 -0.0787,0.12798 -0.17542,0.12798 h -4.17537 c -0.0461,0 -0.0896,-0.013 -0.12279,-0.0366 l -0.99389,-0.71169 c -0.23107,-0.16537 -0.53641,-0.25655 -0.86013,-0.25655 h -16.82206 c -0.29082,0 -0.52627,0.17197 -0.52627,0.38393 0,0.21197 0.23545,0.38394 0.52627,0.38394 h 16.82179 c 0.0463,0 0.0899,0.013 0.12307,0.0366 l 0.99389,0.71188 c 0.23106,0.16537 0.53669,0.25636 0.86012,0.25636 h 4.17537 c 0.67702,0 1.22796,-0.40174 1.22796,-0.89586 v -1.61914 c 0,-0.43033 -0.418,-0.79047 -0.97332,-0.87625 z m -3.59647,-6.99168 h 1.62322 v 1.18441 c 0,0.68809 -0.76748,1.2482 -1.71066,1.2482 h -0.90206 l 1.30636,-0.95325 c 0.20558,-0.14977 0.20558,-0.39293 0,-0.54291 -0.2053,-0.14998 -0.53861,-0.14998 -0.74418,0 l -1.28361,0.93645 v -0.6247 c 0,-0.68829 0.76748,-1.2482 1.71093,-1.2482 z m -3.38513,-3.54903 c -0.66716,-0.48672 -0.66716,-1.27859 0,-1.76511 l 1.14793,-0.83747 1.14793,0.83747 c 0.66688,0.48652 0.66688,1.27839 0,1.76511 l -0.63783,0.46533 v -1.34799 c 0,-0.21196 -0.23573,-0.38393 -0.52627,-0.38393 -0.29082,0 -0.52628,0.17197 -0.52628,0.38393 v 1.32439 z m -2.7125,3.31707 v -1.18441 h 1.62322 c 0.94346,0 1.71094,0.56011 1.71094,1.2482 v 0.6247 l -1.28361,-0.93625 c -0.20558,-0.14998 -0.53861,-0.14998 -0.74419,0 -0.20557,0.14997 -0.20557,0.39293 0,0.54291 l 1.30636,0.95305 h -0.90178 c -0.94373,0 -1.71094,-0.55991 -1.71094,-1.2482 z m -5.05878,0.23196 h 1.62322 v 1.18441 c 0,0.68809 -0.76748,1.2482 -1.71066,1.2482 h -0.90206 l 1.30636,-0.95325 c 0.20557,-0.14977 0.20557,-0.39293 0,-0.54291 -0.20558,-0.14998 -0.53861,-0.14998 -0.74419,0 l -1.28361,0.93645 v -0.6247 c 0,-0.68829 0.76748,-1.2482 1.71094,-1.2482 z m -3.38514,-3.54903 c -0.66716,-0.48672 -0.66716,-1.27859 0,-1.76511 l 1.14793,-0.83747 1.14793,0.83747 c 0.66689,0.48652 0.66689,1.27839 0,1.76511 l -0.63783,0.46533 v -1.34799 c 0,-0.21196 -0.23572,-0.38393 -0.52627,-0.38393 -0.29055,0 -0.52627,0.17197 -0.52627,0.38393 v 1.32439 z m -2.71276,3.31707 v -1.18441 h 1.62349 c 0.94345,0 1.71093,0.56011 1.71093,1.2482 v 0.6247 l -1.28361,-0.93625 c -0.20557,-0.14998 -0.53888,-0.14998 -0.74418,0 -0.20558,0.14997 -0.20558,0.39293 0,0.54291 l 1.30636,0.95305 h -0.90206 c -0.94318,0 -1.71093,-0.55991 -1.71093,-1.2482 z m -5.05852,0.23196 h 1.62322 v 1.18441 c 0,0.68809 -0.76748,1.2482 -1.71066,1.2482 h -0.90206 l 1.30636,-0.95325 c 0.20558,-0.14977 0.20558,-0.39293 0,-0.54291 -0.20557,-0.14998 -0.53861,-0.14998 -0.74418,0 l -1.28361,0.93645 v -0.6247 c 0,-0.68829 0.76748,-1.2482 1.71093,-1.2482 z m -3.38513,-3.54903 c -0.66716,-0.48672 -0.66716,-1.27859 0,-1.76511 l 1.14793,-0.83747 1.14793,0.83747 c 0.66688,0.48652 0.66688,1.27839 0,1.76511 l -0.63783,0.46533 v -1.34799 c 0,-0.21196 -0.23573,-0.38393 -0.52627,-0.38393 -0.29055,0 -0.52628,0.17197 -0.52628,0.38393 v 1.32439 z m -2.7125,3.31707 v -1.18441 h 1.62322 c 0.94346,0 1.71094,0.56011 1.71094,1.2482 v 0.6247 l -1.28361,-0.93645 c -0.20558,-0.14978 -0.53888,-0.14978 -0.74419,0 -0.20557,0.14997 -0.20557,0.39313 0,0.54311 l 1.30636,0.95305 h -0.90206 c -0.94318,0 -1.71066,-0.55991 -1.71066,-1.2482 z m 0,0"
       id="path1031" />
    <path
       style="fill:#27ae60;stroke-width:0.05993417"
       inkscape:connector-curvature="0"
       d="M 121.15758,209.18054 H 121.37 v 0.6121 c 0,0.49372 0.55067,0.89546 1.2277,0.89546 h 30.58955 c 0.67703,0 1.22769,-0.40174 1.22769,-0.89546 v -0.6121 h 0.21243 c 0.41608,0 0.8001,-0.15177 1.02787,-0.40573 0.22751,-0.25396 0.26369,-0.57151 0.0968,-0.84947 l -0.81846,-1.36238 c -0.19571,-0.32574 -0.63701,-0.53611 -1.12463,-0.53611 H 126.1805 c -0.29082,0 -0.52627,0.17197 -0.52627,0.38394 0,0.21216 0.23545,0.38394 0.52627,0.38394 h 27.62845 c 0.0696,0 0.13266,0.03 0.16062,0.0766 l 0.81846,1.36238 c 0.0332,0.055 0.005,0.0994 -0.014,0.12099 -0.0192,0.0216 -0.0641,0.058 -0.14664,0.058 H 121.1576 c -0.0825,0 -0.12746,-0.0364 -0.14665,-0.058 -0.0195,-0.0216 -0.0469,-0.066 -0.014,-0.12099 l 0.81874,-1.36258 c 0.0277,-0.0464 0.0907,-0.0764 0.16035,-0.0764 h 1.80604 c 0.29082,0 0.52627,-0.17198 0.52627,-0.38394 0,-0.21197 -0.23545,-0.38394 -0.52627,-0.38394 h -1.80604 c -0.48763,0 -0.92893,0.21037 -1.12463,0.53611 l -0.81847,1.36238 c -0.16692,0.27796 -0.13074,0.59551 0.0968,0.84947 0.22778,0.25396 0.61179,0.40573 1.02788,0.40573 z m 32.20482,0.6119 c 0,0.0706 -0.0787,0.12778 -0.17515,0.12778 H 122.5977 c -0.0965,0 -0.17515,-0.0572 -0.17515,-0.12778 v -0.6119 h 30.93985 z m 0,0"
       id="path1033" />
    <path
       style="fill:#3498db;stroke-width:0.05993417"
       inkscape:connector-curvature="0"
       d="m 122.10432,211.89211 v 2.55958 c 0,0.21197 0.23572,0.38394 0.52627,0.38394 0.29054,0 0.52627,-0.17197 0.52627,-0.38394 v -2.55958 c 0,-0.21197 -0.23573,-0.38394 -0.52627,-0.38394 -0.29055,0 -0.52627,0.17177 -0.52627,0.38394 z m 0,0"
       id="path1035" />
    <path
       style="fill:#3498db;stroke-width:0.05993417"
       inkscape:connector-curvature="0"
       d="m 124.13923,211.89211 v 1.53575 c 0,0.21196 0.23573,0.38394 0.52628,0.38394 0.29054,0 0.52627,-0.17198 0.52627,-0.38394 v -1.53575 c 0,-0.21197 -0.23573,-0.38394 -0.52627,-0.38394 -0.29055,0 -0.52628,0.17177 -0.52628,0.38394 z m 0,0"
       id="path1037" />
    <path
       style="fill:#3498db;stroke-width:0.05993417"
       inkscape:connector-curvature="0"
       d="m 126.17415,211.89211 v 1.53575 c 0,0.21196 0.23573,0.38394 0.52627,0.38394 0.29055,0 0.52628,-0.17198 0.52628,-0.38394 v -1.53575 c 0,-0.21197 -0.23573,-0.38394 -0.52628,-0.38394 -0.29054,0 -0.52627,0.17177 -0.52627,0.38394 z m 0,0"
       id="path1039" />
    <path
       style="fill:#3498db;stroke-width:0.05993417"
       inkscape:connector-curvature="0"
       d="m 128.20907,211.89211 v 1.53575 c 0,0.21196 0.23573,0.38394 0.52627,0.38394 0.29055,0 0.52627,-0.17198 0.52627,-0.38394 v -1.53575 c 0,-0.21197 -0.23572,-0.38394 -0.52627,-0.38394 -0.29054,0 -0.52627,0.17177 -0.52627,0.38394 z m 0,0"
       id="path1041" />
    <path
       style="fill:#3498db;stroke-width:0.05993417"
       inkscape:connector-curvature="0"
       d="m 130.24399,211.89211 v 3.58342 c 0,0.21196 0.23572,0.38394 0.52627,0.38394 0.29055,0 0.52627,-0.17198 0.52627,-0.38394 v -3.58342 c 0,-0.21197 -0.23572,-0.38394 -0.52627,-0.38394 -0.29055,0 -0.52627,0.17177 -0.52627,0.38394 z m 0,0"
       id="path1043" />
    <path
       style="fill:#3498db;stroke-width:0.05993417"
       inkscape:connector-curvature="0"
       d="m 132.27891,211.89211 v 4.60725 c 0,0.21197 0.23572,0.38394 0.52627,0.38394 0.29054,0 0.52627,-0.17197 0.52627,-0.38394 v -4.60725 c 0,-0.21197 -0.23573,-0.38394 -0.52627,-0.38394 -0.29055,0 -0.52627,0.17177 -0.52627,0.38394 z m 0,0"
       id="path1045" />
    <path
       style="fill:#3498db;stroke-width:0.05993417"
       inkscape:connector-curvature="0"
       d="m 134.31382,211.89211 v 1.94528 c 0,0.21197 0.23573,0.38394 0.52628,0.38394 0.29054,0 0.52627,-0.17197 0.52627,-0.38394 v -1.94528 c 0,-0.21197 -0.23573,-0.38394 -0.52627,-0.38394 -0.29055,0 -0.52628,0.17177 -0.52628,0.38394 z m 0,0"
       id="path1047" />
    <path
       style="fill:#3498db;stroke-width:0.05993417"
       inkscape:connector-curvature="0"
       d="m 136.34874,211.89211 v 1.53575 c 0,0.21196 0.23573,0.38394 0.52627,0.38394 0.29055,0 0.52628,-0.17198 0.52628,-0.38394 v -1.53575 c 0,-0.21197 -0.23573,-0.38394 -0.52628,-0.38394 -0.29054,0 -0.52627,0.17177 -0.52627,0.38394 z m 0,0"
       id="path1049" />
    <path
       style="fill:#3498db;stroke-width:0.05993417"
       inkscape:connector-curvature="0"
       d="m 138.38366,211.89211 v 1.53575 c 0,0.21196 0.23573,0.38394 0.52627,0.38394 0.29055,0 0.52627,-0.17198 0.52627,-0.38394 v -1.53575 c 0,-0.21197 -0.23572,-0.38394 -0.52627,-0.38394 -0.29054,0 -0.52627,0.17177 -0.52627,0.38394 z m 0,0"
       id="path1051" />
    <path
       style="fill:#3498db;stroke-width:0.05993417"
       inkscape:connector-curvature="0"
       d="m 140.41858,211.89211 v 1.94528 c 0,0.21197 0.23572,0.38394 0.52627,0.38394 0.29054,0 0.52627,-0.17197 0.52627,-0.38394 v -1.94528 c 0,-0.21197 -0.23573,-0.38394 -0.52627,-0.38394 -0.29055,0 -0.52627,0.17177 -0.52627,0.38394 z m 0,0"
       id="path1053" />
    <path
       style="fill:#3498db;stroke-width:0.05993417"
       inkscape:connector-curvature="0"
       d="m 142.4535,211.89211 v 4.60725 c 0,0.21197 0.23572,0.38394 0.52627,0.38394 0.29054,0 0.52627,-0.17197 0.52627,-0.38394 v -4.60725 c 0,-0.21197 -0.23573,-0.38394 -0.52627,-0.38394 -0.29055,0 -0.52627,0.17177 -0.52627,0.38394 z m 0,0"
       id="path1055" />
    <path
       style="fill:#3498db;stroke-width:0.05993417"
       inkscape:connector-curvature="0"
       d="m 144.48841,211.89211 v 3.58342 c 0,0.21196 0.23573,0.38394 0.52627,0.38394 0.29055,0 0.52628,-0.17198 0.52628,-0.38394 v -3.58342 c 0,-0.21197 -0.23573,-0.38394 -0.52628,-0.38394 -0.29054,0 -0.52627,0.17177 -0.52627,0.38394 z m 0,0"
       id="path1057" />
    <path
       style="fill:#3498db;stroke-width:0.05993417"
       inkscape:connector-curvature="0"
       d="m 146.52333,211.89211 v 1.53575 c 0,0.21196 0.23573,0.38394 0.52627,0.38394 0.29055,0 0.52627,-0.17198 0.52627,-0.38394 v -1.53575 c 0,-0.21197 -0.23572,-0.38394 -0.52627,-0.38394 -0.29054,0 -0.52627,0.17177 -0.52627,0.38394 z m 0,0"
       id="path1059" />
    <path
       style="fill:#3498db;stroke-width:0.05993417"
       inkscape:connector-curvature="0"
       d="m 148.55825,211.89211 v 1.53575 c 0,0.21196 0.23572,0.38394 0.52627,0.38394 0.29055,0 0.52627,-0.17198 0.52627,-0.38394 v -1.53575 c 0,-0.21197 -0.23572,-0.38394 -0.52627,-0.38394 -0.29055,0 -0.52627,0.17177 -0.52627,0.38394 z m 0,0"
       id="path1061" />
    <path
       style="fill:#3498db;stroke-width:0.05993417"
       inkscape:connector-curvature="0"
       d="m 150.59317,211.89211 v 1.53575 c 0,0.21196 0.23572,0.38394 0.52627,0.38394 0.29054,0 0.52627,-0.17198 0.52627,-0.38394 v -1.53575 c 0,-0.21197 -0.23573,-0.38394 -0.52627,-0.38394 -0.29055,0 -0.52627,0.17177 -0.52627,0.38394 z m 0,0"
       id="path1063" />
    <path
       style="fill:#3498db;stroke-width:0.05993417"
       inkscape:connector-curvature="0"
       d="m 152.62808,211.89211 v 2.55958 c 0,0.21197 0.23573,0.38394 0.52628,0.38394 0.29054,0 0.52627,-0.17197 0.52627,-0.38394 v -2.55958 c 0,-0.21197 -0.23573,-0.38394 -0.52627,-0.38394 -0.29055,0 -0.52628,0.17177 -0.52628,0.38394 z m 0,0"
       id="path1065" />
    <g
       id="g1133"
       transform="matrix(0.01033529,0,0,0.01033529,132.52451,187.89782)"
       style="fill:#16a085">
      <path
         id="path1113"
         d="m 60,512 c 33.089844,0 61,-26.91016 61,-60 0,-33.08984 -27.910156,-61 -61,-61 -33.089844,0 -60,27.91016 -60,61 0,33.08984 26.910156,60 60,60 z m 0,0"
         inkscape:connector-curvature="0"
         style="fill:#16a085" />
      <path
         id="path1115"
         d="m 15,300 h 30 c 91.125,0 167,75.87109 167,167 v 30 c 0,8.28516 6.71484,15 15,15 h 30 c 8.28516,0 15,-6.71484 15,-15 V 467 C 272,342.73437 169.26562,240 45,240 H 15 c -8.285156,0 -15,6.71484 -15,15 v 30 c 0,8.28516 6.714844,15 15,15 z m 0,0"
         inkscape:connector-curvature="0"
         style="fill:#16a085" />
      <path
         id="path1117"
         d="m 15,180 h 30 c 157.40234,0 287,129.59766 287,287 v 30 c 0,8.28516 6.71484,15 15,15 h 30 c 8.28516,0 15,-6.71484 15,-15 V 467 C 392,276.46094 235.53906,120 45,120 H 15 c -8.285156,0 -15,6.71484 -15,15 v 30 c 0,8.28516 6.714844,15 15,15 z m 0,0"
         inkscape:connector-curvature="0"
         style="fill:#16a085" />
      <path
         id="path1119"
         d="M 45,0 H 15 C 6.714844,0 0,6.714844 0,15 v 30 c 0,8.285156 6.714844,15 15,15 h 30 c 223.67578,0 407,183.32422 407,407 v 30 c 0,8.28516 6.71484,15 15,15 h 30 c 8.28516,0 15,-6.71484 15,-15 V 467 C 512,210.1875 301.8125,0 45,0 Z m 0,0"
         inkscape:connector-curvature="0"
         style="fill:#16a085" />
    </g>
    <g
       style="fill:#16a085"
       transform="matrix(0.01033529,0,0,0.01033529,139.40372,187.89782)"
       id="g1143">
      <path
         style="fill:#16a085"
         inkscape:connector-curvature="0"
         d="m 60,512 c 33.089844,0 61,-26.91016 61,-60 0,-33.08984 -27.910156,-61 -61,-61 -33.089844,0 -60,27.91016 -60,61 0,33.08984 26.910156,60 60,60 z m 0,0"
         id="path1135" />
      <path
         style="fill:#16a085"
         inkscape:connector-curvature="0"
         d="m 15,300 h 30 c 91.125,0 167,75.87109 167,167 v 30 c 0,8.28516 6.71484,15 15,15 h 30 c 8.28516,0 15,-6.71484 15,-15 V 467 C 272,342.73437 169.26562,240 45,240 H 15 c -8.285156,0 -15,6.71484 -15,15 v 30 c 0,8.28516 6.714844,15 15,15 z m 0,0"
         id="path1137" />
      <path
         style="fill:#16a085"
         inkscape:connector-curvature="0"
         d="m 15,180 h 30 c 157.40234,0 287,129.59766 287,287 v 30 c 0,8.28516 6.71484,15 15,15 h 30 c 8.28516,0 15,-6.71484 15,-15 V 467 C 392,276.46094 235.53906,120 45,120 H 15 c -8.285156,0 -15,6.71484 -15,15 v 30 c 0,8.28516 6.714844,15 15,15 z m 0,0"
         id="path1139" />
      <path
         style="fill:#16a085"
         inkscape:connector-curvature="0"
         d="M 45,0 H 15 C 6.714844,0 0,6.714844 0,15 v 30 c 0,8.285156 6.714844,15 15,15 h 30 c 223.67578,0 407,183.32422 407,407 v 30 c 0,8.28516 6.71484,15 15,15 h 30 c 8.28516,0 15,-6.71484 15,-15 V 467 C 512,210.1875 301.8125,0 45,0 Z m 0,0"
         id="path1141" />
    </g>
    <circle
       style="opacity:1;fill:#ffffff;fill-opacity:1;stroke:none;stroke-width:0.5753594;stroke-linecap:round;stroke-linejoin:round;stroke-miterlimit:4;stroke-dasharray:none;stroke-opacity:1;filter:url(#filter1392)"
       id="circle1366"
       cx="198.4375"
       cy="194.69899"
       r="7.9375" />
    <circle
       r="7.9375"
       cy="194.69899"
       cx="198.4375"
       id="circle1286"
       style="opacity:1;fill:#7f8c8d;fill-opacity:1;stroke:none;stroke-width:0.5753594;stroke-linecap:round;stroke-linejoin:round;stroke-miterlimit:4;stroke-dasharray:none;stroke-opacity:1" />
    <g
       id="g1206"
       transform="matrix(0.02607868,0,0,0.0292437,192.0875,186.72153)"
       style="fill:#ffffff;stroke:none">
      <g
         id="g1149"
         style="fill:#ffffff;stroke:none">
	<g
   id="g1147"
   style="fill:#ffffff;stroke:none">
		<path
   id="path1145"
   d="m 16.822,284.968 h 39.667 v 158.667 c 0,9.35 7.65,17 17,17 h 116.167 c 9.35,0 17,-7.65 17,-17 V 327.468 h 70.833 v 116.167 c 0,9.35 7.65,17 17,17 h 110.5 c 9.35,0 17,-7.65 17,-17 V 284.968 h 48.167 c 6.8,0 13.033,-4.25 15.583,-10.483 2.55,-6.233 1.133,-13.6 -3.683,-18.417 L 260.489,31.385 c -6.517,-6.517 -17.283,-6.8 -23.8,-0.283 L 5.206,255.785 c -5.1,4.817 -6.517,12.183 -3.967,18.7 2.55,6.516 8.783,10.483 15.583,10.483 z m 231.2,-217.6 181.333,183.6 h -24.367 c -9.35,0 -17,7.65 -17,17 v 158.667 h -76.5 V 310.468 c 0,-9.35 -7.65,-17 -17,-17 H 189.656 c -9.35,0 -17,7.65 -17,17 V 426.635 H 90.489 V 267.968 c 0,-9.35 -7.65,-17 -17,-17 H 58.756 Z"
   inkscape:connector-curvature="0"
   style="fill:#ffffff;stroke:none" />

	</g>

</g>
      <g
         id="g1151"
         style="fill:#ffffff;stroke:none">
</g>
      <g
         id="g1153"
         style="fill:#ffffff;stroke:none">
</g>
      <g
         id="g1155"
         style="fill:#ffffff;stroke:none">
</g>
      <g
         id="g1157"
         style="fill:#ffffff;stroke:none">
</g>
      <g
         id="g1159"
         style="fill:#ffffff;stroke:none">
</g>
      <g
         id="g1161"
         style="fill:#ffffff;stroke:none">
</g>
      <g
         id="g1163"
         style="fill:#ffffff;stroke:none">
</g>
      <g
         id="g1165"
         style="fill:#ffffff;stroke:none">
</g>
      <g
         id="g1167"
         style="fill:#ffffff;stroke:none">
</g>
      <g
         id="g1169"
         style="fill:#ffffff;stroke:none">
</g>
      <g
         id="g1171"
         style="fill:#ffffff;stroke:none">
</g>
      <g
         id="g1173"
         style="fill:#ffffff;stroke:none">
</g>
      <g
         id="g1175"
         style="fill:#ffffff;stroke:none">
</g>
      <g
         id="g1177"
         style="fill:#ffffff;stroke:none">
</g>
      <g
         id="g1179"
         style="fill:#ffffff;stroke:none">
</g>
    </g>
    <text
       xml:space="preserve"
       style="font-style:normal;font-weight:normal;font-size:6.3499999px;line-height:1.25;font-family:sans-serif;letter-spacing:0px;word-spacing:0px;fill:#000000;fill-opacity:1;stroke:none;stroke-width:0.26458332"
       x="191.38606"
       y="207.3275"
       id="text1212"><tspan
         sodipodi:role="line"
         id="tspan1210"
         x="191.38606"
         y="207.3275"
         style="font-size:5.64444447px;fill:#ffffff;stroke-width:0.26458332">home</tspan></text>
    <circle
       r="7.9375"
       cy="224.8037"
       cx="197.953"
       id="circle1396"
       style="opacity:1;fill:#ffffff;fill-opacity:1;stroke:none;stroke-width:0.5753594;stroke-linecap:round;stroke-linejoin:round;stroke-miterlimit:4;stroke-dasharray:none;stroke-opacity:1;filter:url(#filter1422)" />
    <circle
       style="opacity:1;fill:#7f8c8d;fill-opacity:1;stroke:none;stroke-width:0.5753594;stroke-linecap:round;stroke-linejoin:round;stroke-miterlimit:4;stroke-dasharray:none;stroke-opacity:1"
       id="path1284"
       cx="197.953"
       cy="224.8037"
       r="7.9375" />
    <text
       id="text1282"
       y="238.01875"
       x="188.21111"
       style="font-style:normal;font-weight:normal;font-size:6.3499999px;line-height:1.25;font-family:sans-serif;letter-spacing:0px;word-spacing:0px;fill:#000000;fill-opacity:1;stroke:none;stroke-width:0.26458332"
       xml:space="preserve"><tspan
         style="font-size:5.64444447px;fill:#ffffff;stroke-width:0.26458332"
         y="238.01875"
         x="188.21111"
         id="tspan1280"
         sodipodi:role="line">manual</tspan></text>
    <text
       xml:space="preserve"
       style="font-style:normal;font-weight:normal;font-size:6.3499999px;line-height:1.25;font-family:sans-serif;letter-spacing:0px;word-spacing:0px;fill:#f39c12;fill-opacity:1;stroke:none;stroke-width:0.26458332;"
       x="37.033855"
       y="207.51053"
       id="text1290"><tspan
         sodipodi:role="line"
         id="tspan1288"
         x="37.033855"
         y="207.51053"
         style="fill:#f39c12;stroke-width:0.26458332;">Web Cam</tspan><tspan
         sodipodi:role="line"
         x="37.033855"
         y="215.44803"
         style="fill:#f39c12;stroke-width:0.26458332;"
         id="tspan1294" /></text>
    <text
       id="text1300"
       y="219.6812"
       x="32.584515"
       style="font-style:normal;font-weight:normal;font-size:6.3499999px;line-height:1.25;font-family:sans-serif;letter-spacing:0px;word-spacing:0px;fill:#f39c12;fill-opacity:1;stroke:none;stroke-width:0.26458332;"
       xml:space="preserve"><tspan
         id="tspan1298"
         style="fill:#f39c12;stroke-width:0.26458332;"
         y="219.6812"
         x="32.584515"
         sodipodi:role="line">Not connect</tspan></text>
    <g
       style="fill:#ffffff;stroke:none"
       transform="matrix(0.02607868,0,0,0.0292437,192.0875,186.72153)"
       id="g1340">
      <g
         style="fill:#ffffff;stroke:none"
         id="g1308">
	<g
   style="fill:#ffffff;stroke:none"
   id="g1306">
		<path
   style="fill:#ffffff;stroke:none"
   inkscape:connector-curvature="0"
   d="m 16.822,284.968 h 39.667 v 158.667 c 0,9.35 7.65,17 17,17 h 116.167 c 9.35,0 17,-7.65 17,-17 V 327.468 h 70.833 v 116.167 c 0,9.35 7.65,17 17,17 h 110.5 c 9.35,0 17,-7.65 17,-17 V 284.968 h 48.167 c 6.8,0 13.033,-4.25 15.583,-10.483 2.55,-6.233 1.133,-13.6 -3.683,-18.417 L 260.489,31.385 c -6.517,-6.517 -17.283,-6.8 -23.8,-0.283 L 5.206,255.785 c -5.1,4.817 -6.517,12.183 -3.967,18.7 2.55,6.516 8.783,10.483 15.583,10.483 z m 231.2,-217.6 181.333,183.6 h -24.367 c -9.35,0 -17,7.65 -17,17 v 158.667 h -76.5 V 310.468 c 0,-9.35 -7.65,-17 -17,-17 H 189.656 c -9.35,0 -17,7.65 -17,17 V 426.635 H 90.489 V 267.968 c 0,-9.35 -7.65,-17 -17,-17 H 58.756 Z"
   id="path1304" />

	</g>

</g>
      <g
         style="fill:#ffffff;stroke:none"
         id="g1310">
</g>
      <g
         style="fill:#ffffff;stroke:none"
         id="g1312">
</g>
      <g
         style="fill:#ffffff;stroke:none"
         id="g1314">
</g>
      <g
         style="fill:#ffffff;stroke:none"
         id="g1316">
</g>
      <g
         style="fill:#ffffff;stroke:none"
         id="g1318">
</g>
      <g
         style="fill:#ffffff;stroke:none"
         id="g1320">
</g>
      <g
         style="fill:#ffffff;stroke:none"
         id="g1322">
</g>
      <g
         style="fill:#ffffff;stroke:none"
         id="g1324">
</g>
      <g
         style="fill:#ffffff;stroke:none"
         id="g1326">
</g>
      <g
         style="fill:#ffffff;stroke:none"
         id="g1328">
</g>
      <g
         style="fill:#ffffff;stroke:none"
         id="g1330">
</g>
      <g
         style="fill:#ffffff;stroke:none"
         id="g1332">
</g>
      <g
         style="fill:#ffffff;stroke:none"
         id="g1334">
</g>
      <g
         style="fill:#ffffff;stroke:none"
         id="g1336">
</g>
      <g
         style="fill:#ffffff;stroke:none"
         id="g1338">
</g>
    </g>
    <text
       xml:space="preserve"
       style="font-style:normal;font-weight:normal;font-size:6.3499999px;line-height:1.25;font-family:sans-serif;letter-spacing:0px;word-spacing:0px;fill:#000000;fill-opacity:1;stroke:none;stroke-width:0.26458332"
       x="155.69054"
       y="280.96219"
       id="text1428"><tspan
         sodipodi:role="line"
         id="tspan1426"
         x="155.69054"
         y="280.96219"
         style="stroke-width:0.26458332">o</tspan></text>
    <circle
       style="opacity:1;fill:#ffffff;fill-opacity:1;stroke:none;stroke-width:0.5753594;stroke-linecap:round;stroke-linejoin:round;stroke-miterlimit:4;stroke-dasharray:none;stroke-opacity:1;filter:url(#filter1422)"
       id="circle1464"
       cx="197.953"
       cy="255.49495"
       r="7.9375" />
    <circle
       r="7.9375"
       cy="255.49495"
       cx="197.953"
       id="circle1466"
       style="opacity:1;fill:#7f8c8d;fill-opacity:1;stroke:none;stroke-width:0.5753594;stroke-linecap:round;stroke-linejoin:round;stroke-miterlimit:4;stroke-dasharray:none;stroke-opacity:1" />
    <g
       style="fill:#ffffff"
       transform="matrix(0.01362401,0,0,0.01376388,192.08749,249.3504)"
       id="g1506">
      <g
         style="fill:#ffffff"
         id="g1474">
	<path
   style="fill:#ffffff"
   inkscape:connector-curvature="0"
   d="m 61.2,341.538 c 4.9,16.8 11.7,33 20.3,48.2 l -24.5,30.9 c -8,10.1 -7.1,24.5 1.9,33.6 l 42.2,42.2 c 9.1,9.1 23.5,9.899 33.6,1.899 l 30.7,-24.3 c 15.8,9.101 32.6,16.2 50.1,21.2 l 4.6,39.5 c 1.5,12.8 12.3,22.4 25.1,22.4 h 59.7 c 12.8,0 23.6,-9.601 25.1,-22.4 l 4.4,-38.1 c 18.8,-4.9 36.8,-12.2 53.7,-21.7 l 29.7,23.5 c 10.1,8 24.5,7.1 33.6,-1.9 l 42.2,-42.2 c 9.1,-9.1 9.9,-23.5 1.9,-33.6 l -23.1,-29.3 c 9.6,-16.601 17.1,-34.3 22.1,-52.8 l 35.6,-4.1 c 12.801,-1.5 22.4,-12.3 22.4,-25.1 v -59.7 c 0,-12.8 -9.6,-23.6 -22.4,-25.1 l -35.1,-4.1 c -4.801,-18.3 -12,-35.8 -21.199,-52.2 l 21.6,-27.3 c 8,-10.1 7.1,-24.5 -1.9,-33.6 l -42.1,-42.1 c -9.1,-9.1 -23.5,-9.9 -33.6,-1.9 l -26.5,21 c -17.2,-10.1 -35.601,-17.8 -54.9,-23 l -4,-34.3 c -1.5,-12.8 -12.3,-22.4 -25.1,-22.4 h -59.7 c -12.8,0 -23.6,9.6 -25.1,22.4 l -4,34.3 c -19.8,5.3 -38.7,13.3 -56.3,23.8 l -27.5,-21.8 c -10.1,-8 -24.5,-7.1 -33.6,1.9 l -42.2,42.2 c -9.1,9.1 -9.9,23.5 -1.9,33.6 l 23,29.1 c -9.2,16.6 -16.2,34.3 -20.8,52.7 l -36.8,4.2 c -12.8,1.5 -22.4,12.3 -22.4,25.1 v 59.7 c 0,12.8 9.6,23.6 22.4,25.1 z m 216.3,-161.5 c 54.4,0 98.7,44.3 98.7,98.7 0,54.4 -44.3,98.7 -98.7,98.7 -54.399,0 -98.7,-44.3 -98.7,-98.7 0,-54.4 44.3,-98.7 98.7,-98.7 z"
   id="path1468" />

	<path
   style="fill:#ffffff"
   inkscape:connector-curvature="0"
   d="m 867.699,356.238 -31.5,-26.6 c -9.699,-8.2 -24,-7.8 -33.199,0.9 l -17.4,16.3 c -14.699,-7.1 -30.299,-12.1 -46.4,-15 l -4.898,-24 c -2.5,-12.4 -14,-21 -26.602,-20 l -41.1,3.5 c -12.6,1.1 -22.5,11.4 -22.9,24.1 l -0.799,24.4 c -15.801,5.7 -30.701,13.5 -44.301,23.3 l -20.799,-13.8 c -10.602,-7 -24.701,-5 -32.9,4.7 l -26.6,31.7 c -8.201,9.7 -7.801,24 0.898,33.2 l 18.201,19.399 c -6.301,14.2 -10.801,29.101 -13.4,44.4 l -26,5.3 c -12.4,2.5 -21,14 -20,26.601 l 3.5,41.1 c 1.1,12.6 11.4,22.5 24.1,22.9 l 28.1,0.899 c 5.102,13.4 11.801,26.101 19.9,38 l -15.699,23.7 c -7,10.6 -5,24.7 4.699,32.9 l 31.5,26.6 c 9.701,8.2 24,7.8 33.201,-0.9 l 20.6,-19.3 c 13.5,6.3 27.699,11 42.299,13.8 l 5.701,28.2 c 2.5,12.4 14,21 26.6,20 l 41.1,-3.5 c 12.6,-1.1 22.5,-11.399 22.9,-24.1 l 0.9,-27.601 c 15,-5.3 29.199,-12.5 42.299,-21.399 l 22.701,15 c 10.6,7 24.699,5 32.9,-4.7 l 26.6,-31.5 c 8.199,-9.7 7.799,-24 -0.9,-33.2 L 872.7,592.138 c 6.701,-14.2 11.602,-29.2 14.4,-44.601 l 25,-5.1 c 12.4,-2.5 21,-14 20,-26.601 l -3.5,-41.1 c -1.1,-12.6 -11.4,-22.5 -24.1,-22.9 l -25.1,-0.8 c -5.201,-14.6 -12.201,-28.399 -20.9,-41.2 l 13.699,-20.6 c 7.201,-10.598 5.201,-24.798 -4.5,-32.998 z M 712.801,593.837 c -44.4,3.801 -83.602,-29.3 -87.301,-73.699 -3.801,-44.4 29.301,-83.601 73.699,-87.301 44.4,-3.8 83.602,29.301 87.301,73.7 3.801,44.401 -29.301,83.601 -73.699,87.3 z"
   id="path1470" />

	<path
   style="fill:#ffffff"
   inkscape:connector-curvature="0"
   d="m 205,704.438 c -12.6,1.3 -22.3,11.899 -22.4,24.6 l -0.3,25.3 c -0.2,12.7 9.2,23.5 21.8,25.101 l 18.6,2.399 c 3.1,11.301 7.5,22.101 13.2,32.301 l -12,14.8 c -8,9.899 -7.4,24.1 1.5,33.2 l 17.7,18.1 c 8.9,9.1 23.1,10.1 33.2,2.3 l 14.899,-11.5 c 10.5,6.2 21.601,11.101 33.2,14.5 l 2,19.2 c 1.3,12.6 11.9,22.3 24.6,22.4 l 25.301,0.3 c 12.699,0.2 23.5,-9.2 25.1,-21.8 l 2.3,-18.2 c 12.601,-3.101 24.601,-7.8 36,-14 l 14,11.3 c 9.9,8 24.101,7.4 33.201,-1.5 l 18.1,-17.7 c 9.1,-8.899 10.1,-23.1 2.301,-33.2 L 496.6,818.438 c 6.6,-11 11.701,-22.7 15.201,-35 l 16.6,-1.7 c 12.6,-1.3 22.299,-11.9 22.4,-24.6 l 0.299,-25.301 c 0.201,-12.699 -9.199,-23.5 -21.799,-25.1 l -16.201,-2.1 c -3.1,-12.2 -7.699,-24 -13.699,-35 l 10.1,-12.4 c 8,-9.9 7.4,-24.1 -1.5,-33.2 l -17.699,-18.1 c -8.9,-9.101 -23.102,-10.101 -33.201,-2.3 l -12.101,9.3 c -11.399,-6.9 -23.6,-12.2 -36.399,-15.8 L 407,581.437 c -1.3,-12.601 -11.899,-22.3 -24.6,-22.4 l -25.3,-0.3 c -12.7,-0.2 -23.5,9.2 -25.101,21.8 l -2,15.601 c -13.199,3.399 -25.899,8.6 -37.699,15.399 l -12.5,-10.2 c -9.9,-8 -24.101,-7.399 -33.201,1.5 l -18.2,17.801 c -9.1,8.899 -10.1,23.1 -2.3,33.199 l 10.7,13.801 c -6.2,11 -11.1,22.699 -14.3,35 z m 163.3,-28.601 c 36.3,0.4 65.399,30.301 65,66.601 -0.4,36.3 -30.301,65.399 -66.601,65 -36.3,-0.4 -65.399,-30.3 -65,-66.601 0.401,-36.299 30.301,-65.399 66.601,-65 z"
   id="path1472" />

</g>
      <g
         style="fill:#ffffff"
         id="g1476">
</g>
      <g
         style="fill:#ffffff"
         id="g1478">
</g>
      <g
         style="fill:#ffffff"
         id="g1480">
</g>
      <g
         style="fill:#ffffff"
         id="g1482">
</g>
      <g
         style="fill:#ffffff"
         id="g1484">
</g>
      <g
         style="fill:#ffffff"
         id="g1486">
</g>
      <g
         style="fill:#ffffff"
         id="g1488">
</g>
      <g
         style="fill:#ffffff"
         id="g1490">
</g>
      <g
         style="fill:#ffffff"
         id="g1492">
</g>
      <g
         style="fill:#ffffff"
         id="g1494">
</g>
      <g
         style="fill:#ffffff"
         id="g1496">
</g>
      <g
         style="fill:#ffffff"
         id="g1498">
</g>
      <g
         style="fill:#ffffff"
         id="g1500">
</g>
      <g
         style="fill:#ffffff"
         id="g1502">
</g>
      <g
         style="fill:#ffffff"
         id="g1504">
</g>
    </g>
    <text
       xml:space="preserve"
       style="font-style:normal;font-weight:normal;font-size:6.3499999px;line-height:1.25;font-family:sans-serif;letter-spacing:0px;word-spacing:0px;fill:#000000;fill-opacity:1;stroke:none;stroke-width:0.26458332"
       x="188.74026"
       y="268.71039"
       id="text1510"><tspan
         sodipodi:role="line"
         id="tspan1508"
         x="188.74026"
         y="268.71039"
         style="font-size:5.64444447px;fill:#ffffff;stroke-width:0.26458332">setting</tspan></text>
    <g
       id="g1582"
       transform="matrix(0.02254973,0,0,0.02918196,192.1975,217.97801)"
       style="fill:#ffffff">
      <g
         id="g1516"
         style="fill:#ffffff">
	<g
   id="g1514"
   style="fill:#ffffff">
		<path
   id="path1512"
   d="M 438.827,186.347 358.614,98.198 c -15.872,-15.872 -41.728,-15.893 -57.749,0.128 -5.077,5.077 -8.533,11.157 -10.325,17.643 -15.957,-12.224 -38.976,-11.008 -53.675,3.691 -5.056,5.077 -8.512,11.157 -10.347,17.621 -15.957,-12.181 -38.976,-10.987 -53.653,3.712 -4.971,4.971 -8.384,10.901 -10.24,17.216 l -37.803,-37.803 c -15.872,-15.872 -41.728,-15.893 -57.749,0.128 -15.893,15.872 -15.893,41.728 0,57.621 l 145.237,145.237 -86.144,13.525 c -23.275,3.328 -40.832,23.552 -40.832,47.083 0,17.643 14.357,32 32,32 h 201.152 c 31.339,0 60.8,-12.203 82.965,-34.368 l 33.557,-33.557 c 22.144,-22.123 34.325,-51.563 34.325,-82.859 0,-29.227 -10.837,-57.237 -30.506,-78.869 z m -18.902,146.645 -33.557,33.557 c -18.133,18.133 -42.24,28.117 -67.883,28.117 H 117.333 c -5.888,0 -10.667,-4.779 -10.667,-10.667 0,-12.971 9.685,-24.128 22.677,-25.984 L 236.33,341.204 c 3.968,-0.619 7.232,-3.413 8.491,-7.232 1.237,-3.797 0.235,-8 -2.603,-10.837 L 82.155,163.072 c -7.573,-7.573 -7.573,-19.904 0.107,-27.605 3.797,-3.776 8.768,-5.675 13.739,-5.675 4.971,0 9.941,1.899 13.739,5.696 l 106.731,106.731 c 4.16,4.16 10.923,4.16 15.083,0 2.069,-2.091 3.115,-4.821 3.115,-7.552 0,-2.731 -1.045,-5.461 -3.136,-7.552 l -43.584,-43.584 c -7.573,-7.573 -7.573,-19.883 0.128,-27.584 7.552,-7.552 19.904,-7.552 27.456,0 l 43.605,43.605 c 4.16,4.16 10.923,4.16 15.083,0 2.069,-2.091 3.115,-4.821 3.115,-7.552 0,-2.731 -1.045,-5.461 -3.136,-7.552 l -22.251,-22.251 c -7.573,-7.573 -7.573,-19.883 0.128,-27.584 7.552,-7.552 19.904,-7.552 27.456,0 l 22.357,22.357 c 0.043,0.021 0.021,0.021 0.021,0.021 l 0.021,0.021 c 0.021,0.021 0.021,0.021 0.021,0.021 0.021,0.021 0.021,0.021 0.021,0.021 h 0.021 c 0.021,0 0.021,0.021 0.021,0.021 4.181,3.968 10.795,3.883 14.869,-0.213 4.16,-4.16 4.16,-10.923 0,-15.083 l -0.917,-0.917 c -3.669,-3.669 -5.696,-8.555 -5.696,-13.739 0,-5.184 2.005,-10.048 5.803,-13.845 7.595,-7.552 19.883,-7.531 27.115,-0.363 l 79.872,87.787 c 16.063,17.687 24.938,40.599 24.938,64.514 0,25.6 -9.963,49.664 -28.075,67.776 z"
   inkscape:connector-curvature="0"
   style="fill:#ffffff" />

	</g>

</g>
      <g
         id="g1522"
         style="fill:#ffffff">
	<g
   id="g1520"
   style="fill:#ffffff">
		<path
   id="path1518"
   d="M 183.381,109.931 C 167.851,75.563 133.547,53.333 96,53.333 c -52.928,0 -96,43.072 -96,96 0,37.547 22.229,71.851 56.597,87.403 1.429,0.64 2.923,0.939 4.395,0.939 4.053,0 7.936,-2.347 9.728,-6.272 2.411,-5.376 0.021,-11.691 -5.333,-14.123 -26.752,-12.096 -44.053,-38.763 -44.053,-67.947 0,-41.173 33.493,-74.667 74.667,-74.667 29.184,0 55.851,17.301 67.947,44.053 2.411,5.376 8.747,7.787 14.101,5.333 5.375,-2.431 7.764,-8.745 5.332,-14.121 z"
   inkscape:connector-curvature="0"
   style="fill:#ffffff" />

	</g>

</g>
      <g
         id="g1524"
         style="fill:#ffffff">
</g>
      <g
         id="g1526"
         style="fill:#ffffff">
</g>
      <g
         id="g1528"
         style="fill:#ffffff">
</g>
      <g
         id="g1530"
         style="fill:#ffffff">
</g>
      <g
         id="g1532"
         style="fill:#ffffff">
</g>
      <g
         id="g1534"
         style="fill:#ffffff">
</g>
      <g
         id="g1536"
         style="fill:#ffffff">
</g>
      <g
         id="g1538"
         style="fill:#ffffff">
</g>
      <g
         id="g1540"
         style="fill:#ffffff">
</g>
      <g
         id="g1542"
         style="fill:#ffffff">
</g>
      <g
         id="g1544"
         style="fill:#ffffff">
</g>
      <g
         id="g1546"
         style="fill:#ffffff">
</g>
      <g
         id="g1548"
         style="fill:#ffffff">
</g>
      <g
         id="g1550"
         style="fill:#ffffff">
</g>
      <g
         id="g1552"
         style="fill:#ffffff">
</g>
    </g>
  </g>
</svg>
