<?xml version="1.0" encoding="UTF-8" standalone="no"?>
<!-- Created with Inkscape (http://www.inkscape.org/) -->

<svg
   xmlns:dc="http://purl.org/dc/elements/1.1/"
   xmlns:cc="http://creativecommons.org/ns#"
   xmlns:rdf="http://www.w3.org/1999/02/22-rdf-syntax-ns#"
   xmlns:svg="http://www.w3.org/2000/svg"
   xmlns="http://www.w3.org/2000/svg"
   xmlns:xlink="http://www.w3.org/1999/xlink"
   xmlns:sodipodi="http://sodipodi.sourceforge.net/DTD/sodipodi-0.dtd"
   xmlns:inkscape="http://www.inkscape.org/namespaces/inkscape"
   width="800"
   height="480"
   viewBox="0 0 211.66666 127"
   version="1.1"
   id="svg8"
   inkscape:version="0.92.3 (2405546, 2018-03-11)"
   sodipodi:docname="drawing-1.svg"
   inkscape:export-filename="C:\Users\top\Documents\iotAgriculture\mainUI.png"
   inkscape:export-xdpi="96"
   inkscape:export-ydpi="96">
  <defs
     id="defs2">
    <linearGradient
       inkscape:collect="always"
       id="linearGradient966">
      <stop
         style="stop-color:#072255;stop-opacity:1;"
         offset="0"
         id="stop962" />
      <stop
         style="stop-color:#072255;stop-opacity:0;"
         offset="1"
         id="stop964" />
    </linearGradient>
    <filter
       inkscape:collect="always"
       style="color-interpolation-filters:sRGB"
       id="filter851"
       x="-0.034105787"
       width="1.0682116"
       y="-0.24920282"
       height="1.4984056">
      <feGaussianBlur
         inkscape:collect="always"
         stdDeviation="0.63810057"
         id="feGaussianBlur853" />
    </filter>
    <filter
       inkscape:collect="always"
       style="color-interpolation-filters:sRGB"
       id="filter1108"
       x="-0.156"
       width="1.312"
       y="-0.156"
       height="1.312">
      <feGaussianBlur
         inkscape:collect="always"
         stdDeviation="1.7197916"
         id="feGaussianBlur1110" />
    </filter>
    <linearGradient
       inkscape:collect="always"
       xlink:href="#linearGradient966"
       id="linearGradient968"
       x1="71.047234"
       y1="290.36234"
       x2="92.926826"
       y2="13.794408"
       gradientUnits="userSpaceOnUse" />
    <filter
       inkscape:collect="always"
       style="color-interpolation-filters:sRGB"
       id="filter984"
       x="-0.0294"
       width="1.0588"
       y="-0.020275862"
       height="1.0405517">
      <feGaussianBlur
         inkscape:collect="always"
         stdDeviation="0.64822914"
         id="feGaussianBlur986" />
    </filter>
    <filter
       inkscape:collect="always"
       style="color-interpolation-filters:sRGB"
       id="filter994"
       x="-0.020391608"
       width="1.0407832"
       y="-0.02916"
       height="1.05832">
      <feGaussianBlur
         inkscape:collect="always"
         stdDeviation="0.59738674"
         id="feGaussianBlur996" />
    </filter>
    <filter
       inkscape:collect="always"
       style="color-interpolation-filters:sRGB"
       id="filter1024"
       x="-0.03792"
       width="1.07584"
       y="-0.06537931"
       height="1.1307586">
      <feGaussianBlur
         inkscape:collect="always"
         stdDeviation="0.7768486"
         id="feGaussianBlur1026" />
    </filter>
    <filter
       inkscape:collect="always"
       style="color-interpolation-filters:sRGB"
       id="filter1076"
       x="-0.03792"
       width="1.07584"
       y="-0.06537931"
       height="1.1307586">
      <feGaussianBlur
         inkscape:collect="always"
         stdDeviation="0.7768486"
         id="feGaussianBlur1078" />
    </filter>
    <filter
       inkscape:collect="always"
       style="color-interpolation-filters:sRGB"
       id="filter1110"
       x="-0.03792"
       width="1.07584"
       y="-0.06537931"
       height="1.1307586">
      <feGaussianBlur
         inkscape:collect="always"
         stdDeviation="0.7768486"
         id="feGaussianBlur1112" />
    </filter>
    <filter
       inkscape:collect="always"
       style="color-interpolation-filters:sRGB"
       id="filter1220"
       x="-0.084"
       width="1.168"
       y="-0.084"
       height="1.168">
      <feGaussianBlur
         inkscape:collect="always"
         stdDeviation="0.38893751"
         id="feGaussianBlur1222" />
    </filter>
  </defs>
  <sodipodi:namedview
     id="base"
     pagecolor="#ffffff"
     bordercolor="#666666"
     borderopacity="1.0"
     inkscape:pageopacity="0.0"
     inkscape:pageshadow="2"
     inkscape:zoom="4.305"
     inkscape:cx="725.43956"
     inkscape:cy="82.476794"
     inkscape:document-units="px"
     inkscape:current-layer="layer1"
     showgrid="false"
     units="px"
     showguides="true"
     inkscape:window-width="1366"
     inkscape:window-height="705"
     inkscape:window-x="-8"
     inkscape:window-y="-8"
     inkscape:window-maximized="1"
     inkscape:snap-smooth-nodes="true" />
  <metadata
     id="metadata5">
    <rdf:RDF>
      <cc:Work
         rdf:about="">
        <dc:format>image/svg+xml</dc:format>
        <dc:type
           rdf:resource="http://purl.org/dc/dcmitype/StillImage" />
        <dc:title />
      </cc:Work>
    </rdf:RDF>
  </metadata>
  <g
     inkscape:label="Layer 1"
     inkscape:groupmode="layer"
     id="layer1"
     transform="translate(0,-169.99998)">
    <rect
       style="opacity:1;fill:url(#linearGradient968);fill-opacity:1;stroke:#2c3e50;stroke-width:2.60243678;stroke-linecap:round;stroke-linejoin:round;stroke-miterlimit:4;stroke-dasharray:none;stroke-opacity:1"
       id="rect815"
       width="209.06422"
       height="124.39756"
       x="1.3012184"
       y="171.30119" />
    <circle
       r="5.5562501"
       cy="286.34656"
       cx="200.25014"
       id="circle1182"
       style="opacity:1;fill:#ffffff;fill-opacity:1;stroke:none;stroke-width:1.51208615;stroke-linecap:round;stroke-linejoin:round;stroke-miterlimit:4;stroke-dasharray:none;stroke-opacity:1;filter:url(#filter1220)" />
    <rect
       y="257.86893"
       x="10.854369"
       height="28.517227"
       width="49.167633"
       id="rect1080"
       style="opacity:1;fill:#ffffff;fill-opacity:1;stroke:none;stroke-width:0.02645833;stroke-linecap:round;stroke-linejoin:round;stroke-miterlimit:4;stroke-dasharray:none;stroke-opacity:1;filter:url(#filter1110)" />
    <rect
       style="opacity:1;fill:#ffffff;fill-opacity:1;stroke:none;stroke-width:0.02645833;stroke-linecap:round;stroke-linejoin:round;stroke-miterlimit:4;stroke-dasharray:none;stroke-opacity:1;filter:url(#filter1076)"
       id="rect1030"
       width="49.167633"
       height="28.517227"
       x="10.854369"
       y="224.26726" />
    <rect
       y="190.66562"
       x="10.854369"
       height="28.517227"
       width="49.167633"
       id="rect998"
       style="opacity:1;fill:#ffffff;fill-opacity:1;stroke:none;stroke-width:0.02645833;stroke-linecap:round;stroke-linejoin:round;stroke-miterlimit:4;stroke-dasharray:none;stroke-opacity:1;filter:url(#filter1024)" />
    <rect
       y="190.66562"
       x="71.207634"
       height="49.167633"
       width="70.309715"
       id="rect988"
       style="opacity:1;fill:#ffffff;fill-opacity:1;stroke:none;stroke-width:0.02862723;stroke-linecap:round;stroke-linejoin:round;stroke-miterlimit:4;stroke-dasharray:none;stroke-opacity:1;filter:url(#filter994)" />
    <rect
       ry="1.3229166"
       style="opacity:1;fill:#ffffff;fill-opacity:1;stroke:none;stroke-width:1.32291663;stroke-linecap:round;stroke-linejoin:round;stroke-miterlimit:4;stroke-dasharray:none;stroke-opacity:1;filter:url(#filter984)"
       id="rect970"
       width="52.916664"
       height="76.729164"
       x="152.75095"
       y="191.85623" />
    <circle
       style="opacity:1;fill:#34495e;fill-opacity:1;stroke:#ffffff;stroke-width:1.32291663;stroke-linecap:round;stroke-linejoin:round;stroke-miterlimit:4;stroke-dasharray:none;stroke-opacity:1;filter:url(#filter1108)"
       id="circle1150"
       cx="124.53912"
       cy="266.18478"
       r="13.229166" />
    <circle
       r="13.229166"
       cy="266.18478"
       cx="87.497498"
       id="circle1018"
       style="opacity:1;fill:#34495e;fill-opacity:1;stroke:#ffffff;stroke-width:1.32291663;stroke-linecap:round;stroke-linejoin:round;stroke-miterlimit:4;stroke-dasharray:none;stroke-opacity:1;filter:url(#filter1108)" />
    <rect
       y="190.79791"
       x="151.69263"
       height="76.729164"
       width="52.916664"
       id="rect924"
       style="opacity:1;fill:#2c3e50;fill-opacity:1;stroke:none;stroke-width:1.32291663;stroke-linecap:round;stroke-linejoin:round;stroke-miterlimit:4;stroke-dasharray:none;stroke-opacity:1"
       ry="1.3229166" />
    <path
       style="opacity:1;fill:#2c3e50;fill-opacity:1;stroke:#2c3e50;stroke-width:2.64583325;stroke-linecap:round;stroke-linejoin:round;stroke-miterlimit:4;stroke-dasharray:none;stroke-opacity:1"
       d="m 39.851314,172.11666 c -0.105365,0.35783 -0.163815,0.73576 -0.163815,1.12861 0,2.19869 1.770063,3.96875 3.96875,3.96875 H 168.01041 c 2.19869,0 3.96875,-1.77006 3.96875,-3.96875 0,-0.39285 -0.0584,-0.77078 -0.16381,-1.12861 z"
       id="rect893"
       inkscape:connector-curvature="0" />
    <g
       id="g910"
       transform="translate(0,0.52916666)">
      <text
         xml:space="preserve"
         style="font-style:normal;font-weight:normal;font-size:6.3499999px;line-height:1.25;font-family:sans-serif;letter-spacing:0px;word-spacing:0px;fill:#ffffff;fill-opacity:1;stroke:none;stroke-width:0.26458332;filter:url(#filter851)"
         x="83.831573"
         y="175.31009"
         id="text829"><tspan
           sodipodi:role="line"
           id="tspan827"
           x="83.831573"
           y="175.31009"
           style="fill:#ffffff;stroke-width:0.26458332">Agriculture iot</tspan></text>
      <text
         id="text825"
         y="175.31009"
         x="83.831573"
         style="font-style:normal;font-weight:normal;font-size:6.3499999px;line-height:1.25;font-family:sans-serif;letter-spacing:0px;word-spacing:0px;fill:#ffffff;fill-opacity:1;stroke:#2c3e50;stroke-width:0.02645833;stroke-miterlimit:4;stroke-dasharray:none;stroke-opacity:1"
         xml:space="preserve"><tspan
           style="fill:#ffffff;stroke:#2c3e50;stroke-width:0.02645833;stroke-miterlimit:4;stroke-dasharray:none;stroke-opacity:1"
           y="175.31009"
           x="83.831573"
           id="tspan823"
           sodipodi:role="line">Agriculture iot</tspan></text>
    </g>
    <text
       id="text904"
       y="176.89757"
       x="11.864844"
       style="font-style:normal;font-weight:normal;font-size:6.3499999px;line-height:1.25;font-family:sans-serif;letter-spacing:0px;word-spacing:0px;fill:#ffffff;fill-opacity:1;stroke:none;stroke-width:0.02645833;stroke-miterlimit:4;stroke-dasharray:none;stroke-opacity:1"
       xml:space="preserve"><tspan
         style="font-size:4.93888903px;fill:#ffffff;stroke:none;stroke-width:0.02645833;stroke-miterlimit:4;stroke-dasharray:none;stroke-opacity:1"
         y="176.89757"
         x="11.864844"
         id="tspan902"
         sodipodi:role="line">10:10</tspan></text>
    <text
       xml:space="preserve"
       style="font-style:normal;font-weight:normal;font-size:6.3499999px;line-height:1.25;font-family:sans-serif;letter-spacing:0px;word-spacing:0px;fill:#ffffff;fill-opacity:1;stroke:none;stroke-width:0.02645833;stroke-miterlimit:4;stroke-dasharray:none;stroke-opacity:1"
       x="180.90559"
       y="176.36841"
       id="text914"><tspan
         sodipodi:role="line"
         id="tspan912"
         x="180.90559"
         y="176.36841"
         style="font-size:4.93888903px;fill:#ffffff;stroke:none;stroke-width:0.02645833;stroke-miterlimit:4;stroke-dasharray:none;stroke-opacity:1">sensor: 2</tspan></text>
    <rect
       style="opacity:1;fill:#2c3e50;fill-opacity:1;stroke:none;stroke-width:0.02862723;stroke-linecap:round;stroke-linejoin:round;stroke-miterlimit:4;stroke-dasharray:none;stroke-opacity:1"
       id="rect916"
       width="70.309715"
       height="49.167633"
       x="70.678467"
       y="190.13646" />
    <rect
       style="opacity:1;fill:#2c3e50;fill-opacity:1;stroke:none;stroke-width:0.02645833;stroke-linecap:round;stroke-linejoin:round;stroke-miterlimit:4;stroke-dasharray:none;stroke-opacity:1"
       id="rect922"
       width="49.167633"
       height="28.517227"
       x="10.325203"
       y="190.13646" />
    <rect
       style="opacity:1;fill:#02db81;fill-opacity:1;stroke:none;stroke-width:1.82597077;stroke-linecap:round;stroke-linejoin:round;stroke-miterlimit:4;stroke-dasharray:none;stroke-opacity:1;"
       id="rect926"
       width="21.166666"
       height="13.229166"
       x="155.33224"
       y="202.87131"
       ry="1.8734066" />
    <rect
       ry="1.8734066"
       y="202.87131"
       x="180.20274"
       height="13.229166"
       width="21.166666"
       id="rect928"
       style="opacity:1;fill:#02db81;fill-opacity:1;stroke:none;stroke-width:1.82597077;stroke-linecap:round;stroke-linejoin:round;stroke-miterlimit:4;stroke-dasharray:none;stroke-opacity:1" />
    <rect
       ry="1.8734066"
       y="218.21693"
       x="155.33224"
       height="13.229166"
       width="21.166666"
       id="rect930"
       style="opacity:1;fill:#02db81;fill-opacity:1;stroke:none;stroke-width:1.82597077;stroke-linecap:round;stroke-linejoin:round;stroke-miterlimit:4;stroke-dasharray:none;stroke-opacity:1" />
    <rect
       style="opacity:1;fill:#02db81;fill-opacity:1;stroke:none;stroke-width:1.82597077;stroke-linecap:round;stroke-linejoin:round;stroke-miterlimit:4;stroke-dasharray:none;stroke-opacity:1"
       id="rect932"
       width="21.166666"
       height="13.229166"
       x="180.20274"
       y="218.21693"
       ry="1.8734066" />
    <rect
       style="opacity:1;fill:#02db81;fill-opacity:1;stroke:none;stroke-width:1.82597077;stroke-linecap:round;stroke-linejoin:round;stroke-miterlimit:4;stroke-dasharray:none;stroke-opacity:1"
       id="rect934"
       width="21.166666"
       height="13.229166"
       x="155.33224"
       y="233.56256"
       ry="1.8734066" />
    <rect
       ry="1.8734066"
       y="233.56256"
       x="180.20274"
       height="13.229166"
       width="21.166666"
       id="rect936"
       style="opacity:1;fill:#02db81;fill-opacity:1;stroke:none;stroke-width:1.82597077;stroke-linecap:round;stroke-linejoin:round;stroke-miterlimit:4;stroke-dasharray:none;stroke-opacity:1" />
    <circle
       style="opacity:1;fill:#16a085;fill-opacity:1;stroke:#ffffff;stroke-width:1.32291663;stroke-linecap:round;stroke-linejoin:round;stroke-miterlimit:4;stroke-dasharray:none;stroke-opacity:1"
       id="path964"
       cx="87.497498"
       cy="265.65561"
       r="13.229166" />
    <circle
       style="opacity:1;fill:#2c3e50;fill-opacity:1;stroke:#ffffff;stroke-width:0.52916664;stroke-linecap:round;stroke-linejoin:round;stroke-miterlimit:4;stroke-dasharray:none;stroke-opacity:1"
       id="path968"
       cx="96.999756"
       cy="256.51163"
       r="3.6079545" />
    <text
       xml:space="preserve"
       style="font-style:normal;font-weight:normal;font-size:6.3499999px;line-height:1.25;font-family:sans-serif;letter-spacing:0px;word-spacing:0px;fill:#000000;fill-opacity:1;stroke:none;stroke-width:0.26458332"
       x="79.625458"
       y="268.22394"
       id="text974"><tspan
         sodipodi:role="line"
         id="tspan972"
         x="79.625458"
         y="268.22394"
         style="font-size:7.05555534px;fill:#ffffff;stroke-width:0.26458332">99%</tspan></text>
    <circle
       r="13.229166"
       cy="265.65561"
       cx="125.06831"
       id="circle1000"
       style="opacity:1;fill:#16a085;fill-opacity:1;stroke:#ffffff;stroke-width:1.32291663;stroke-linecap:round;stroke-linejoin:round;stroke-miterlimit:4;stroke-dasharray:none;stroke-opacity:1" />
    <circle
       r="3.6079545"
       cy="256.51163"
       cx="134.57051"
       id="circle1002"
       style="opacity:1;fill:#2c3e50;fill-opacity:1;stroke:#ffffff;stroke-width:0.52916664;stroke-linecap:round;stroke-linejoin:round;stroke-miterlimit:4;stroke-dasharray:none;stroke-opacity:1" />
    <text
       id="text1006"
       y="268.22394"
       x="117.19627"
       style="font-style:normal;font-weight:normal;font-size:6.3499999px;line-height:1.25;font-family:sans-serif;letter-spacing:0px;word-spacing:0px;fill:#000000;fill-opacity:1;stroke:none;stroke-width:0.26458332"
       xml:space="preserve"><tspan
         style="font-size:7.05555534px;fill:#ffffff;stroke-width:0.26458332"
         y="268.22394"
         x="117.19627"
         id="tspan1004"
         sodipodi:role="line">99%</tspan></text>
    <rect
       y="223.7381"
       x="10.325203"
       height="28.517227"
       width="49.167633"
       id="rect1146"
       style="opacity:1;fill:#2c3e50;fill-opacity:1;stroke:none;stroke-width:0.02645833;stroke-linecap:round;stroke-linejoin:round;stroke-miterlimit:4;stroke-dasharray:none;stroke-opacity:1" />
    <rect
       style="opacity:1;fill:#2c3e50;fill-opacity:1;stroke:none;stroke-width:0.02645833;stroke-linecap:round;stroke-linejoin:round;stroke-miterlimit:4;stroke-dasharray:none;stroke-opacity:1"
       id="rect1148"
       width="49.167633"
       height="28.517227"
       x="10.325203"
       y="257.33975" />
    <g
       id="g934"
       transform="matrix(0.00913715,0,0,0.00906415,94.501002,254.01007)"
       style="fill:#27ae60">
      <g
         id="g878"
         style="fill:#27ae60">
	<path
   id="path876"
   d="m 413.695,0 c 0,0 -45.366,44.014 -94.43,61.759 -363.333,131.419 -210.1,387.518 -205.101,388.362 0,0 20.374,-35.48 47.896,-55.717 C 336.704,266.015 372.2,118.233 372.2,118.233 c 0,0 -39.19,177.829 -194.562,288.479 -34.316,24.426 -57.552,84.568 -67.388,144.679 0,0 24.325,-9.828 34.785,-12.49 4.079,-26.618 12.607,-52.106 27.025,-74.875 C 389.211,489.88 460.332,314.903 469.623,253.89 491.552,109.79 413.695,0 413.695,0 Z"
   inkscape:connector-curvature="0"
   style="fill:#27ae60" />

</g>
      <g
         id="g880"
         style="fill:#27ae60">
</g>
      <g
         id="g882"
         style="fill:#27ae60">
</g>
      <g
         id="g884"
         style="fill:#27ae60">
</g>
      <g
         id="g886"
         style="fill:#27ae60">
</g>
      <g
         id="g888"
         style="fill:#27ae60">
</g>
      <g
         id="g890"
         style="fill:#27ae60">
</g>
      <g
         id="g892"
         style="fill:#27ae60">
</g>
      <g
         id="g894"
         style="fill:#27ae60">
</g>
      <g
         id="g896"
         style="fill:#27ae60">
</g>
      <g
         id="g898"
         style="fill:#27ae60">
</g>
      <g
         id="g900"
         style="fill:#27ae60">
</g>
      <g
         id="g902"
         style="fill:#27ae60">
</g>
      <g
         id="g904"
         style="fill:#27ae60">
</g>
      <g
         id="g906"
         style="fill:#27ae60">
</g>
      <g
         id="g908"
         style="fill:#27ae60">
</g>
    </g>
    <rect
       style="opacity:0.54299999;fill:#2c3e50;fill-opacity:1;stroke:none;stroke-width:1.32291663;stroke-linecap:round;stroke-linejoin:round;stroke-miterlimit:4;stroke-dasharray:none;stroke-opacity:1"
       id="rect947"
       width="49.716476"
       height="29.899418"
       x="435.97525"
       y="201.39137" />
    <circle
       style="opacity:1;fill:#ff6c00;fill-opacity:1;stroke:none;stroke-width:1.51208615;stroke-linecap:round;stroke-linejoin:round;stroke-miterlimit:4;stroke-dasharray:none;stroke-opacity:1"
       id="path1114"
       cx="200.25014"
       cy="285.81738"
       r="5.5562501" />
    <g
       id="g1180"
       transform="matrix(0.006812,0,0,0.00688194,197.07513,282.60978)"
       style="fill:#ffffff">
      <g
         id="g1122"
         style="fill:#ffffff">
	<path
   id="path1116"
   d="m 61.2,341.538 c 4.9,16.8 11.7,33 20.3,48.2 l -24.5,30.9 c -8,10.1 -7.1,24.5 1.9,33.6 l 42.2,42.2 c 9.1,9.1 23.5,9.899 33.6,1.899 l 30.7,-24.3 c 15.8,9.101 32.6,16.2 50.1,21.2 l 4.6,39.5 c 1.5,12.8 12.3,22.4 25.1,22.4 h 59.7 c 12.8,0 23.6,-9.601 25.1,-22.4 l 4.4,-38.1 c 18.8,-4.9 36.8,-12.2 53.7,-21.7 l 29.7,23.5 c 10.1,8 24.5,7.1 33.6,-1.9 l 42.2,-42.2 c 9.1,-9.1 9.9,-23.5 1.9,-33.6 l -23.1,-29.3 c 9.6,-16.601 17.1,-34.3 22.1,-52.8 l 35.6,-4.1 c 12.801,-1.5 22.4,-12.3 22.4,-25.1 v -59.7 c 0,-12.8 -9.6,-23.6 -22.4,-25.1 l -35.1,-4.1 c -4.801,-18.3 -12,-35.8 -21.199,-52.2 l 21.6,-27.3 c 8,-10.1 7.1,-24.5 -1.9,-33.6 l -42.1,-42.1 c -9.1,-9.1 -23.5,-9.9 -33.6,-1.9 l -26.5,21 c -17.2,-10.1 -35.601,-17.8 -54.9,-23 l -4,-34.3 c -1.5,-12.8 -12.3,-22.4 -25.1,-22.4 h -59.7 c -12.8,0 -23.6,9.6 -25.1,22.4 l -4,34.3 c -19.8,5.3 -38.7,13.3 -56.3,23.8 l -27.5,-21.8 c -10.1,-8 -24.5,-7.1 -33.6,1.9 l -42.2,42.2 c -9.1,9.1 -9.9,23.5 -1.9,33.6 l 23,29.1 c -9.2,16.6 -16.2,34.3 -20.8,52.7 l -36.8,4.2 c -12.8,1.5 -22.4,12.3 -22.4,25.1 v 59.7 c 0,12.8 9.6,23.6 22.4,25.1 z m 216.3,-161.5 c 54.4,0 98.7,44.3 98.7,98.7 0,54.4 -44.3,98.7 -98.7,98.7 -54.399,0 -98.7,-44.3 -98.7,-98.7 0,-54.4 44.3,-98.7 98.7,-98.7 z"
   inkscape:connector-curvature="0"
   style="fill:#ffffff" />

	<path
   id="path1118"
   d="m 867.699,356.238 -31.5,-26.6 c -9.699,-8.2 -24,-7.8 -33.199,0.9 l -17.4,16.3 c -14.699,-7.1 -30.299,-12.1 -46.4,-15 l -4.898,-24 c -2.5,-12.4 -14,-21 -26.602,-20 l -41.1,3.5 c -12.6,1.1 -22.5,11.4 -22.9,24.1 l -0.799,24.4 c -15.801,5.7 -30.701,13.5 -44.301,23.3 l -20.799,-13.8 c -10.602,-7 -24.701,-5 -32.9,4.7 l -26.6,31.7 c -8.201,9.7 -7.801,24 0.898,33.2 l 18.201,19.399 c -6.301,14.2 -10.801,29.101 -13.4,44.4 l -26,5.3 c -12.4,2.5 -21,14 -20,26.601 l 3.5,41.1 c 1.1,12.6 11.4,22.5 24.1,22.9 l 28.1,0.899 c 5.102,13.4 11.801,26.101 19.9,38 l -15.699,23.7 c -7,10.6 -5,24.7 4.699,32.9 l 31.5,26.6 c 9.701,8.2 24,7.8 33.201,-0.9 l 20.6,-19.3 c 13.5,6.3 27.699,11 42.299,13.8 l 5.701,28.2 c 2.5,12.4 14,21 26.6,20 l 41.1,-3.5 c 12.6,-1.1 22.5,-11.399 22.9,-24.1 l 0.9,-27.601 c 15,-5.3 29.199,-12.5 42.299,-21.399 l 22.701,15 c 10.6,7 24.699,5 32.9,-4.7 l 26.6,-31.5 c 8.199,-9.7 7.799,-24 -0.9,-33.2 L 872.7,592.138 c 6.701,-14.2 11.602,-29.2 14.4,-44.601 l 25,-5.1 c 12.4,-2.5 21,-14 20,-26.601 l -3.5,-41.1 c -1.1,-12.6 -11.4,-22.5 -24.1,-22.9 l -25.1,-0.8 c -5.201,-14.6 -12.201,-28.399 -20.9,-41.2 l 13.699,-20.6 c 7.201,-10.598 5.201,-24.798 -4.5,-32.998 z M 712.801,593.837 c -44.4,3.801 -83.602,-29.3 -87.301,-73.699 -3.801,-44.4 29.301,-83.601 73.699,-87.301 44.4,-3.8 83.602,29.301 87.301,73.7 3.801,44.401 -29.301,83.601 -73.699,87.3 z"
   inkscape:connector-curvature="0"
   style="fill:#ffffff" />

	<path
   id="path1120"
   d="m 205,704.438 c -12.6,1.3 -22.3,11.899 -22.4,24.6 l -0.3,25.3 c -0.2,12.7 9.2,23.5 21.8,25.101 l 18.6,2.399 c 3.1,11.301 7.5,22.101 13.2,32.301 l -12,14.8 c -8,9.899 -7.4,24.1 1.5,33.2 l 17.7,18.1 c 8.9,9.1 23.1,10.1 33.2,2.3 l 14.899,-11.5 c 10.5,6.2 21.601,11.101 33.2,14.5 l 2,19.2 c 1.3,12.6 11.9,22.3 24.6,22.4 l 25.301,0.3 c 12.699,0.2 23.5,-9.2 25.1,-21.8 l 2.3,-18.2 c 12.601,-3.101 24.601,-7.8 36,-14 l 14,11.3 c 9.9,8 24.101,7.4 33.201,-1.5 l 18.1,-17.7 c 9.1,-8.899 10.1,-23.1 2.301,-33.2 L 496.6,818.438 c 6.6,-11 11.701,-22.7 15.201,-35 l 16.6,-1.7 c 12.6,-1.3 22.299,-11.9 22.4,-24.6 l 0.299,-25.301 c 0.201,-12.699 -9.199,-23.5 -21.799,-25.1 l -16.201,-2.1 c -3.1,-12.2 -7.699,-24 -13.699,-35 l 10.1,-12.4 c 8,-9.9 7.4,-24.1 -1.5,-33.2 l -17.699,-18.1 c -8.9,-9.101 -23.102,-10.101 -33.201,-2.3 l -12.101,9.3 c -11.399,-6.9 -23.6,-12.2 -36.399,-15.8 L 407,581.437 c -1.3,-12.601 -11.899,-22.3 -24.6,-22.4 l -25.3,-0.3 c -12.7,-0.2 -23.5,9.2 -25.101,21.8 l -2,15.601 c -13.199,3.399 -25.899,8.6 -37.699,15.399 l -12.5,-10.2 c -9.9,-8 -24.101,-7.399 -33.201,1.5 l -18.2,17.801 c -9.1,8.899 -10.1,23.1 -2.3,33.199 l 10.7,13.801 c -6.2,11 -11.1,22.699 -14.3,35 z m 163.3,-28.601 c 36.3,0.4 65.399,30.301 65,66.601 -0.4,36.3 -30.301,65.399 -66.601,65 -36.3,-0.4 -65.399,-30.3 -65,-66.601 0.401,-36.299 30.301,-65.399 66.601,-65 z"
   inkscape:connector-curvature="0"
   style="fill:#ffffff" />

</g>
      <g
         id="g1124"
         style="fill:#ffffff">
</g>
      <g
         id="g1126"
         style="fill:#ffffff">
</g>
      <g
         id="g1128"
         style="fill:#ffffff">
</g>
      <g
         id="g1130"
         style="fill:#ffffff">
</g>
      <g
         id="g1132"
         style="fill:#ffffff">
</g>
      <g
         id="g1134"
         style="fill:#ffffff">
</g>
      <g
         id="g1136"
         style="fill:#ffffff">
</g>
      <g
         id="g1138"
         style="fill:#ffffff">
</g>
      <g
         id="g1140"
         style="fill:#ffffff">
</g>
      <g
         id="g1142"
         style="fill:#ffffff">
</g>
      <g
         id="g1144"
         style="fill:#ffffff">
</g>
      <g
         id="g1146"
         style="fill:#ffffff">
</g>
      <g
         id="g1148"
         style="fill:#ffffff">
</g>
      <g
         id="g1150"
         style="fill:#ffffff">
</g>
      <g
         id="g1152"
         style="fill:#ffffff">
</g>
    </g>
    <circle
       style="opacity:1;fill:#3498db;fill-opacity:1;stroke:none;stroke-width:1.20332134;stroke-linecap:round;stroke-linejoin:round;stroke-miterlimit:4;stroke-dasharray:none;stroke-opacity:1"
       id="path1224"
       cx="165.61417"
       cy="258.31433"
       r="3.96875" />
    <path
       style="fill:#2980b9;stroke:#2980b9;stroke-width:0.79374999;stroke-linecap:round;stroke-linejoin:miter;stroke-opacity:1;stroke-miterlimit:4;stroke-dasharray:none"
       d="m 171.81569,258.31182 -5.29167,-5.29166"
       id="path1226"
       inkscape:connector-curvature="0" />
    <path
       style="fill:#2980b9;stroke:#2980b9;stroke-width:0.79374999;stroke-linecap:round;stroke-linejoin:miter;stroke-opacity:1;stroke-miterlimit:4;stroke-dasharray:none"
       d="m 166.52402,263.60349 5.29167,-5.29167"
       id="path1228"
       inkscape:connector-curvature="0" />
    <path
       style="fill:#2980b9;stroke:#2980b9;stroke-width:0.79867405;stroke-linecap:butt;stroke-linejoin:miter;stroke-miterlimit:4;stroke-dasharray:none;stroke-opacity:1"
       d="m 171.81569,258.31182 h 6.92444"
       id="path1230"
       inkscape:connector-curvature="0" />
    <path
       style="fill:#2980b9;stroke:#2980b9;stroke-width:0.79582334;stroke-linecap:butt;stroke-linejoin:miter;stroke-miterlimit:4;stroke-dasharray:none;stroke-opacity:1"
       d="m 178.35084,208.51856 v 50.19496"
       id="path1232"
       inkscape:connector-curvature="0" />
    <path
       style="fill:none;stroke:#2980b9;stroke-width:1.09144437;stroke-linecap:round;stroke-linejoin:miter;stroke-miterlimit:4;stroke-dasharray:none;stroke-opacity:1"
       d="m 174.8932,208.22167 h 6.91419"
       id="path1234"
       inkscape:connector-curvature="0" />
    <path
       inkscape:connector-curvature="0"
       id="path1245"
       d="m 174.8932,224.62594 h 6.91419"
       style="fill:none;stroke:#2980b9;stroke-width:1.09144437;stroke-linecap:round;stroke-linejoin:miter;stroke-miterlimit:4;stroke-dasharray:none;stroke-opacity:1" />
    <path
       style="fill:none;stroke:#2980b9;stroke-width:1.09144437;stroke-linecap:round;stroke-linejoin:miter;stroke-miterlimit:4;stroke-dasharray:none;stroke-opacity:1"
       d="m 174.8932,239.97187 h 6.91419"
       id="path1247"
       inkscape:connector-curvature="0" />
    <ellipse
       cy="250.87253"
       cx="193.76263"
       id="circle1249"
       style="opacity:1;fill:#8e44ad;fill-opacity:1;stroke:none;stroke-width:0.26458332;stroke-linecap:round;stroke-linejoin:round;stroke-miterlimit:4;stroke-dasharray:none;stroke-opacity:1"
       rx="3.96875"
       ry="1.5875" />
    <rect
       style="opacity:1;fill:#8e44ad;fill-opacity:1;stroke:none;stroke-width:1.55393803;stroke-linecap:round;stroke-linejoin:miter;stroke-miterlimit:4;stroke-dasharray:none;stroke-opacity:1"
       id="rect1251"
       width="7.9375"
       height="7.9375"
       x="189.79388"
       y="250.87253"
       ry="0" />
    <g
       id="g1325"
       transform="matrix(0.0115835,0,0,0.0118202,191.1168,252.35728)"
       style="fill:#2c3e50">
      <g
         id="g1267"
         style="fill:#2c3e50">
	<g
   id="g1265"
   style="fill:#2c3e50">
		<path
   id="path1261"
   d="m 451.383,247.54 c -3.606,-3.617 -7.898,-5.427 -12.847,-5.427 h -63.953 v -83.939 l 49.396,-49.394 c 3.614,-3.615 5.428,-7.898 5.428,-12.85 0,-4.947 -1.813,-9.229 -5.428,-12.847 -3.614,-3.616 -7.898,-5.424 -12.847,-5.424 -4.949,0 -9.233,1.809 -12.847,5.424 l -49.396,49.394 H 107.923 L 58.529,83.083 c -3.617,-3.616 -7.898,-5.424 -12.847,-5.424 -4.952,0 -9.233,1.809 -12.85,5.424 -3.617,3.617 -5.424,7.9 -5.424,12.847 0,4.952 1.807,9.235 5.424,12.85 l 49.394,49.394 v 83.939 H 18.273 c -4.949,0 -9.231,1.81 -12.847,5.427 C 1.809,251.154 0,255.442 0,260.387 c 0,4.949 1.809,9.237 5.426,12.848 3.616,3.617 7.898,5.431 12.847,5.431 h 63.953 c 0,30.447 5.522,56.53 16.56,78.224 l -57.67,64.809 c -3.237,3.81 -4.712,8.234 -4.425,13.275 0.284,5.037 2.235,9.273 5.852,12.703 3.617,3.045 7.707,4.571 12.275,4.571 5.33,0 9.897,-1.991 13.706,-5.995 l 52.246,-59.102 4.285,4.004 c 2.664,2.479 6.801,5.564 12.419,9.274 5.617,3.71 11.897,7.423 18.842,11.143 6.95,3.71 15.23,6.852 24.84,9.418 9.614,2.573 19.273,3.86 28.98,3.86 V 169.034 h 36.547 V 424.85 c 9.134,0 18.363,-1.239 27.688,-3.717 9.328,-2.471 17.135,-5.232 23.418,-8.278 6.275,-3.049 12.47,-6.519 18.555,-10.42 6.092,-3.901 10.089,-6.612 11.991,-8.138 1.909,-1.526 3.333,-2.762 4.284,-3.71 l 56.534,56.243 c 3.433,3.617 7.707,5.424 12.847,5.424 5.141,0 9.422,-1.807 12.854,-5.424 3.607,-3.617 5.421,-7.902 5.421,-12.851 0,-4.949 -1.813,-9.232 -5.421,-12.847 l -59.388,-59.669 c 12.755,-22.651 19.13,-50.251 19.13,-82.796 h 63.953 c 4.949,0 9.236,-1.81 12.847,-5.427 3.614,-3.614 5.432,-7.898 5.432,-12.847 0,-4.948 -1.817,-9.235 -5.445,-12.853 z"
   inkscape:connector-curvature="0"
   style="fill:#2c3e50" />

		<path
   id="path1263"
   d="M 293.081,31.27 C 275.286,13.475 253.729,4.574 228.414,4.574 c -25.319,0 -46.87,8.901 -64.668,26.696 -17.795,17.797 -26.691,39.353 -26.691,64.667 h 182.716 c 0,-25.31 -8.895,-46.87 -26.69,-64.667 z"
   inkscape:connector-curvature="0"
   style="fill:#2c3e50" />

	</g>

</g>
      <g
         id="g1269"
         style="fill:#2c3e50">
</g>
      <g
         id="g1271"
         style="fill:#2c3e50">
</g>
      <g
         id="g1273"
         style="fill:#2c3e50">
</g>
      <g
         id="g1275"
         style="fill:#2c3e50">
</g>
      <g
         id="g1277"
         style="fill:#2c3e50">
</g>
      <g
         id="g1279"
         style="fill:#2c3e50">
</g>
      <g
         id="g1281"
         style="fill:#2c3e50">
</g>
      <g
         id="g1283"
         style="fill:#2c3e50">
</g>
      <g
         id="g1285"
         style="fill:#2c3e50">
</g>
      <g
         id="g1287"
         style="fill:#2c3e50">
</g>
      <g
         id="g1289"
         style="fill:#2c3e50">
</g>
      <g
         id="g1291"
         style="fill:#2c3e50">
</g>
      <g
         id="g1293"
         style="fill:#2c3e50">
</g>
      <g
         id="g1295"
         style="fill:#2c3e50">
</g>
      <g
         id="g1297"
         style="fill:#2c3e50">
</g>
    </g>
    <path
       style="fill:none;stroke:#2980b9;stroke-width:0.79374999;stroke-linecap:round;stroke-linejoin:miter;stroke-miterlimit:4;stroke-dasharray:none;stroke-opacity:1"
       d="m 178.70118,255.56361 h 11.03845"
       id="path1327"
       inkscape:connector-curvature="0" />
    <text
       id="text1335"
       y="212.48476"
       x="105.81782"
       style="font-style:normal;font-weight:normal;font-size:6.3499999px;line-height:1.25;font-family:sans-serif;letter-spacing:0px;word-spacing:0px;fill:#000000;fill-opacity:1;stroke:none;stroke-width:0.26458332"
       xml:space="preserve"><tspan
         style="text-align:center;text-anchor:middle;fill:#ffffff;stroke-width:0.26458332"
         y="212.48476"
         x="105.81782"
         id="tspan1331"
         sodipodi:role="line">cam</tspan><tspan
         style="text-align:center;text-anchor:middle;fill:#ffffff;stroke-width:0.26458332"
         y="220.42226"
         x="105.81782"
         sodipodi:role="line"
         id="tspan1337">not connection</tspan><tspan
         id="tspan1333"
         style="text-align:center;text-anchor:middle;fill:#ffffff;stroke-width:0.26458332"
         y="228.35976"
         x="105.81782"
         sodipodi:role="line" /></text>
    <g
       style="fill:#27ae60"
       transform="matrix(0.00913715,0,0,0.00906415,132.19731,254.1796)"
       id="g1373">
      <g
         style="fill:#27ae60"
         id="g1341">
	<path
   style="fill:#27ae60"
   inkscape:connector-curvature="0"
   d="m 413.695,0 c 0,0 -45.366,44.014 -94.43,61.759 -363.333,131.419 -210.1,387.518 -205.101,388.362 0,0 20.374,-35.48 47.896,-55.717 C 336.704,266.015 372.2,118.233 372.2,118.233 c 0,0 -39.19,177.829 -194.562,288.479 -34.316,24.426 -57.552,84.568 -67.388,144.679 0,0 24.325,-9.828 34.785,-12.49 4.079,-26.618 12.607,-52.106 27.025,-74.875 C 389.211,489.88 460.332,314.903 469.623,253.89 491.552,109.79 413.695,0 413.695,0 Z"
   id="path1339" />

</g>
      <g
         style="fill:#27ae60"
         id="g1343">
</g>
      <g
         style="fill:#27ae60"
         id="g1345">
</g>
      <g
         style="fill:#27ae60"
         id="g1347">
</g>
      <g
         style="fill:#27ae60"
         id="g1349">
</g>
      <g
         style="fill:#27ae60"
         id="g1351">
</g>
      <g
         style="fill:#27ae60"
         id="g1353">
</g>
      <g
         style="fill:#27ae60"
         id="g1355">
</g>
      <g
         style="fill:#27ae60"
         id="g1357">
</g>
      <g
         style="fill:#27ae60"
         id="g1359">
</g>
      <g
         style="fill:#27ae60"
         id="g1361">
</g>
      <g
         style="fill:#27ae60"
         id="g1363">
</g>
      <g
         style="fill:#27ae60"
         id="g1365">
</g>
      <g
         style="fill:#27ae60"
         id="g1367">
</g>
      <g
         style="fill:#27ae60"
         id="g1369">
</g>
      <g
         style="fill:#27ae60"
         id="g1371">
</g>
    </g>
    <text
       xml:space="preserve"
       style="font-style:normal;font-weight:normal;font-size:6.3499999px;line-height:1.25;font-family:sans-serif;letter-spacing:0px;word-spacing:0px;fill:#000000;fill-opacity:1;stroke:none;stroke-width:0.26458332"
       x="163.83974"
       y="211.80048"
       id="text1377"><tspan
         sodipodi:role="line"
         id="tspan1375"
         x="163.83974"
         y="211.80048"
         style="fill:#ffffff;stroke-width:0.26458332">1</tspan></text>
    <text
       id="text1405"
       y="211.80048"
       x="188.71024"
       style="font-style:normal;font-weight:normal;font-size:6.3499999px;line-height:1.25;font-family:sans-serif;letter-spacing:0px;word-spacing:0px;fill:#000000;fill-opacity:1;stroke:none;stroke-width:0.26458332"
       xml:space="preserve"><tspan
         style="fill:#ffffff;stroke-width:0.26458332"
         y="211.80048"
         x="188.71024"
         id="tspan1403"
         sodipodi:role="line">2</tspan></text>
    <text
       xml:space="preserve"
       style="font-style:normal;font-weight:normal;font-size:6.3499999px;line-height:1.25;font-family:sans-serif;letter-spacing:0px;word-spacing:0px;fill:#000000;fill-opacity:1;stroke:none;stroke-width:0.26458332"
       x="163.83974"
       y="227.1461"
       id="text1409"><tspan
         sodipodi:role="line"
         id="tspan1407"
         x="163.83974"
         y="227.1461"
         style="fill:#ffffff;stroke-width:0.26458332">3</tspan></text>
    <text
       id="text1413"
       y="227.1461"
       x="188.71024"
       style="font-style:normal;font-weight:normal;font-size:6.3499999px;line-height:1.25;font-family:sans-serif;letter-spacing:0px;word-spacing:0px;fill:#000000;fill-opacity:1;stroke:none;stroke-width:0.26458332"
       xml:space="preserve"><tspan
         style="fill:#ffffff;stroke-width:0.26458332"
         y="227.1461"
         x="188.71024"
         id="tspan1411"
         sodipodi:role="line">4</tspan></text>
    <text
       xml:space="preserve"
       style="font-style:normal;font-weight:normal;font-size:6.3499999px;line-height:1.25;font-family:sans-serif;letter-spacing:0px;word-spacing:0px;fill:#000000;fill-opacity:1;stroke:none;stroke-width:0.26458332"
       x="188.71024"
       y="242.49173"
       id="text1417"><tspan
         sodipodi:role="line"
         id="tspan1415"
         x="188.71024"
         y="242.49173"
         style="fill:#ffffff;stroke-width:0.26458332">6</tspan></text>
    <text
       id="text1425"
       y="242.49173"
       x="163.83974"
       style="font-style:normal;font-weight:normal;font-size:6.3499999px;line-height:1.25;font-family:sans-serif;letter-spacing:0px;word-spacing:0px;fill:#000000;fill-opacity:1;stroke:none;stroke-width:0.26458332"
       xml:space="preserve"><tspan
         style="fill:#ffffff;stroke-width:0.26458332"
         y="242.49173"
         x="163.83974"
         id="tspan1423"
         sodipodi:role="line">5</tspan></text>
  </g>
</svg>
