<?xml version="1.0" encoding="UTF-8" standalone="no"?>
<!-- Created with Inkscape (http://www.inkscape.org/) -->

<svg
   xmlns:dc="http://purl.org/dc/elements/1.1/"
   xmlns:cc="http://creativecommons.org/ns#"
   xmlns:rdf="http://www.w3.org/1999/02/22-rdf-syntax-ns#"
   xmlns:svg="http://www.w3.org/2000/svg"
   xmlns="http://www.w3.org/2000/svg"
   xmlns:sodipodi="http://sodipodi.sourceforge.net/DTD/sodipodi-0.dtd"
   xmlns:inkscape="http://www.inkscape.org/namespaces/inkscape"
   width="800"
   height="480"
   viewBox="0 0 211.66667 127"
   version="1.1"
   id="svg8"
   inkscape:version="0.92.3 (2405546, 2018-03-11)"
   sodipodi:docname="drawing2.svg"
   inkscape:export-filename="C:\Users\top\Documents\iotAgriculture\bitmap.png"
   inkscape:export-xdpi="96"
   inkscape:export-ydpi="96">
  <defs
     id="defs2">
    <filter
       inkscape:collect="always"
       style="color-interpolation-filters:sRGB"
       id="filter1392"
       x="-0.048"
       width="1.096"
       y="-0.048"
       height="1.096">
      <feGaussianBlur
         inkscape:collect="always"
         stdDeviation="0.3175"
         id="feGaussianBlur1394" />
    </filter>
    <filter
       inkscape:collect="always"
       style="color-interpolation-filters:sRGB"
       id="filter1422"
       x="-0.048"
       width="1.096"
       y="-0.048"
       height="1.096">
      <feGaussianBlur
         inkscape:collect="always"
         stdDeviation="0.3175"
         id="feGaussianBlur1424" />
    </filter>
  </defs>
  <sodipodi:namedview
     id="base"
     pagecolor="#ffffff"
     bordercolor="#666666"
     borderopacity="1.0"
     inkscape:pageopacity="0.0"
     inkscape:pageshadow="2"
     inkscape:zoom="1.07625"
     inkscape:cx="400.76594"
     inkscape:cy="268.70045"
     inkscape:document-units="mm"
     inkscape:current-layer="layer1"
     showgrid="false"
     units="px"
     inkscape:window-width="1366"
     inkscape:window-height="705"
     inkscape:window-x="-8"
     inkscape:window-y="-8"
     inkscape:window-maximized="1"
     inkscape:snap-intersection-paths="true"
     inkscape:object-paths="true" />
  <metadata
     id="metadata5">
    <rdf:RDF>
      <cc:Work
         rdf:about="">
        <dc:format>image/svg+xml</dc:format>
        <dc:type
           rdf:resource="http://purl.org/dc/dcmitype/StillImage" />
        <dc:title></dc:title>
      </cc:Work>
    </rdf:RDF>
  </metadata>
  <g
     inkscape:label="Layer 1"
     inkscape:groupmode="layer"
     id="layer1"
     transform="translate(0,-170.00001)">
    <rect
       style="opacity:1;fill:#7f8c8d;fill-opacity:1;stroke:none;stroke-width:4.67676973;stroke-linecap:round;stroke-linejoin:round;stroke-miterlimit:4;stroke-dasharray:none;stroke-opacity:1"
       id="rect829"
       width="211.66667"
       height="127"
       x="0"
       y="170.00003"
       rx="3.96875" />
    <rect
       style="opacity:1;fill:#ecf0f1;fill-opacity:1;stroke:none;stroke-width:1.21098101;stroke-linecap:round;stroke-linejoin:round;stroke-miterlimit:4;stroke-dasharray:none;stroke-opacity:1"
       id="rect831"
       width="206.375"
       height="113.77084"
       x="2.6458333"
       y="180.58333"
       rx="1" />
    <rect
       rx="0.1025641"
       y="180.58333"
       x="187.85417"
       height="113.77084"
       width="21.166666"
       id="rect833"
       style="opacity:1;fill:#1abc9c;fill-opacity:1;stroke:none;stroke-width:0.3878243;stroke-linecap:round;stroke-linejoin:round;stroke-miterlimit:4;stroke-dasharray:none;stroke-opacity:1" />
    <g
       id="g849"
       transform="translate(-78.845877)">
      <text
         xml:space="preserve"
         style="font-style:normal;font-weight:normal;font-size:6.3499999px;line-height:1.25;font-family:sans-serif;letter-spacing:0px;word-spacing:0px;fill:#000000;fill-opacity:1;stroke:none;stroke-width:0.26458332"
         x="82.357765"
         y="177.3143"
         id="text843"><tspan
           sodipodi:role="line"
           id="tspan841"
           x="82.357765"
           y="177.3143"
           style="fill:#000000;stroke-width:0.26458332">IOT Agriculture</tspan></text>
      <text
         id="text839"
         y="176.78514"
         x="81.828598"
         style="font-style:normal;font-weight:normal;font-size:6.3499999px;line-height:1.25;font-family:sans-serif;letter-spacing:0px;word-spacing:0px;fill:#000000;fill-opacity:1;stroke:none;stroke-width:0.26458332"
         xml:space="preserve"><tspan
           style="fill:#ffffff;stroke-width:0.26458332"
           y="176.78514"
           x="81.828598"
           id="tspan837"
           sodipodi:role="line">IOT Agriculture</tspan></text>
    </g>
    <circle
       style="opacity:1;fill:#ffffff;fill-opacity:1;stroke:none;stroke-width:0.5753594;stroke-linecap:round;stroke-linejoin:round;stroke-miterlimit:4;stroke-dasharray:none;stroke-opacity:1;filter:url(#filter1392)"
       id="circle1366"
       cx="198.4375"
       cy="194.69899"
       r="7.9375" />
    <circle
       r="7.9375"
       cy="194.69899"
       cx="198.4375"
       id="circle1286"
       style="opacity:1;fill:#7f8c8d;fill-opacity:1;stroke:none;stroke-width:0.5753594;stroke-linecap:round;stroke-linejoin:round;stroke-miterlimit:4;stroke-dasharray:none;stroke-opacity:1" />
    <g
       id="g1206"
       transform="matrix(0.02607868,0,0,0.0292437,192.0875,186.72153)"
       style="fill:#ffffff;stroke:none">
      <g
         id="g1149"
         style="fill:#ffffff;stroke:none">
        <g
           id="g1147"
           style="fill:#ffffff;stroke:none">
          <path
             id="path1145"
             d="m 16.822,284.968 h 39.667 v 158.667 c 0,9.35 7.65,17 17,17 h 116.167 c 9.35,0 17,-7.65 17,-17 V 327.468 h 70.833 v 116.167 c 0,9.35 7.65,17 17,17 h 110.5 c 9.35,0 17,-7.65 17,-17 V 284.968 h 48.167 c 6.8,0 13.033,-4.25 15.583,-10.483 2.55,-6.233 1.133,-13.6 -3.683,-18.417 L 260.489,31.385 c -6.517,-6.517 -17.283,-6.8 -23.8,-0.283 L 5.206,255.785 c -5.1,4.817 -6.517,12.183 -3.967,18.7 2.55,6.516 8.783,10.483 15.583,10.483 z m 231.2,-217.6 181.333,183.6 h -24.367 c -9.35,0 -17,7.65 -17,17 v 158.667 h -76.5 V 310.468 c 0,-9.35 -7.65,-17 -17,-17 H 189.656 c -9.35,0 -17,7.65 -17,17 V 426.635 H 90.489 V 267.968 c 0,-9.35 -7.65,-17 -17,-17 H 58.756 Z"
             inkscape:connector-curvature="0"
             style="fill:#ffffff;stroke:none" />
        </g>
      </g>
      <g
         id="g1151"
         style="fill:#ffffff;stroke:none" />
      <g
         id="g1153"
         style="fill:#ffffff;stroke:none" />
      <g
         id="g1155"
         style="fill:#ffffff;stroke:none" />
      <g
         id="g1157"
         style="fill:#ffffff;stroke:none" />
      <g
         id="g1159"
         style="fill:#ffffff;stroke:none" />
      <g
         id="g1161"
         style="fill:#ffffff;stroke:none" />
      <g
         id="g1163"
         style="fill:#ffffff;stroke:none" />
      <g
         id="g1165"
         style="fill:#ffffff;stroke:none" />
      <g
         id="g1167"
         style="fill:#ffffff;stroke:none" />
      <g
         id="g1169"
         style="fill:#ffffff;stroke:none" />
      <g
         id="g1171"
         style="fill:#ffffff;stroke:none" />
      <g
         id="g1173"
         style="fill:#ffffff;stroke:none" />
      <g
         id="g1175"
         style="fill:#ffffff;stroke:none" />
      <g
         id="g1177"
         style="fill:#ffffff;stroke:none" />
      <g
         id="g1179"
         style="fill:#ffffff;stroke:none" />
    </g>
    <text
       xml:space="preserve"
       style="font-style:normal;font-weight:normal;font-size:6.3499999px;line-height:1.25;font-family:sans-serif;letter-spacing:0px;word-spacing:0px;fill:#000000;fill-opacity:1;stroke:none;stroke-width:0.26458332"
       x="191.38606"
       y="207.3275"
       id="text1212"><tspan
         sodipodi:role="line"
         id="tspan1210"
         x="191.38606"
         y="207.3275"
         style="font-size:5.64444447px;fill:#ffffff;stroke-width:0.26458332">home</tspan></text>
    <circle
       r="7.9375"
       cy="224.8037"
       cx="197.953"
       id="circle1396"
       style="opacity:1;fill:#ffffff;fill-opacity:1;stroke:none;stroke-width:0.5753594;stroke-linecap:round;stroke-linejoin:round;stroke-miterlimit:4;stroke-dasharray:none;stroke-opacity:1;filter:url(#filter1422)" />
    <circle
       style="opacity:1;fill:#7f8c8d;fill-opacity:1;stroke:none;stroke-width:0.5753594;stroke-linecap:round;stroke-linejoin:round;stroke-miterlimit:4;stroke-dasharray:none;stroke-opacity:1"
       id="path1284"
       cx="197.953"
       cy="224.8037"
       r="7.9375" />
    <text
       id="text1282"
       y="238.01875"
       x="188.21111"
       style="font-style:normal;font-weight:normal;font-size:6.3499999px;line-height:1.25;font-family:sans-serif;letter-spacing:0px;word-spacing:0px;fill:#000000;fill-opacity:1;stroke:none;stroke-width:0.26458332"
       xml:space="preserve"><tspan
         style="font-size:5.64444447px;fill:#ffffff;stroke-width:0.26458332"
         y="238.01875"
         x="188.21111"
         id="tspan1280"
         sodipodi:role="line">manual</tspan></text>
    <g
       style="fill:#ffffff;stroke:none"
       transform="matrix(0.02607868,0,0,0.0292437,192.0875,186.72153)"
       id="g1340">
      <g
         style="fill:#ffffff;stroke:none"
         id="g1308">
        <g
           style="fill:#ffffff;stroke:none"
           id="g1306">
          <path
             style="fill:#ffffff;stroke:none"
             inkscape:connector-curvature="0"
             d="m 16.822,284.968 h 39.667 v 158.667 c 0,9.35 7.65,17 17,17 h 116.167 c 9.35,0 17,-7.65 17,-17 V 327.468 h 70.833 v 116.167 c 0,9.35 7.65,17 17,17 h 110.5 c 9.35,0 17,-7.65 17,-17 V 284.968 h 48.167 c 6.8,0 13.033,-4.25 15.583,-10.483 2.55,-6.233 1.133,-13.6 -3.683,-18.417 L 260.489,31.385 c -6.517,-6.517 -17.283,-6.8 -23.8,-0.283 L 5.206,255.785 c -5.1,4.817 -6.517,12.183 -3.967,18.7 2.55,6.516 8.783,10.483 15.583,10.483 z m 231.2,-217.6 181.333,183.6 h -24.367 c -9.35,0 -17,7.65 -17,17 v 158.667 h -76.5 V 310.468 c 0,-9.35 -7.65,-17 -17,-17 H 189.656 c -9.35,0 -17,7.65 -17,17 V 426.635 H 90.489 V 267.968 c 0,-9.35 -7.65,-17 -17,-17 H 58.756 Z"
             id="path1304" />
        </g>
      </g>
      <g
         style="fill:#ffffff;stroke:none"
         id="g1310" />
      <g
         style="fill:#ffffff;stroke:none"
         id="g1312" />
      <g
         style="fill:#ffffff;stroke:none"
         id="g1314" />
      <g
         style="fill:#ffffff;stroke:none"
         id="g1316" />
      <g
         style="fill:#ffffff;stroke:none"
         id="g1318" />
      <g
         style="fill:#ffffff;stroke:none"
         id="g1320" />
      <g
         style="fill:#ffffff;stroke:none"
         id="g1322" />
      <g
         style="fill:#ffffff;stroke:none"
         id="g1324" />
      <g
         style="fill:#ffffff;stroke:none"
         id="g1326" />
      <g
         style="fill:#ffffff;stroke:none"
         id="g1328" />
      <g
         style="fill:#ffffff;stroke:none"
         id="g1330" />
      <g
         style="fill:#ffffff;stroke:none"
         id="g1332" />
      <g
         style="fill:#ffffff;stroke:none"
         id="g1334" />
      <g
         style="fill:#ffffff;stroke:none"
         id="g1336" />
      <g
         style="fill:#ffffff;stroke:none"
         id="g1338" />
    </g>
    <circle
       style="opacity:1;fill:#ffffff;fill-opacity:1;stroke:none;stroke-width:0.5753594;stroke-linecap:round;stroke-linejoin:round;stroke-miterlimit:4;stroke-dasharray:none;stroke-opacity:1;filter:url(#filter1422)"
       id="circle1464"
       cx="197.953"
       cy="255.49495"
       r="7.9375" />
    <circle
       r="7.9375"
       cy="255.49495"
       cx="197.953"
       id="circle1466"
       style="opacity:1;fill:#7f8c8d;fill-opacity:1;stroke:none;stroke-width:0.5753594;stroke-linecap:round;stroke-linejoin:round;stroke-miterlimit:4;stroke-dasharray:none;stroke-opacity:1" />
    <g
       style="fill:#ffffff"
       transform="matrix(0.01362401,0,0,0.01376388,192.08749,249.3504)"
       id="g1506">
      <g
         style="fill:#ffffff"
         id="g1474">
        <path
           style="fill:#ffffff"
           inkscape:connector-curvature="0"
           d="m 61.2,341.538 c 4.9,16.8 11.7,33 20.3,48.2 l -24.5,30.9 c -8,10.1 -7.1,24.5 1.9,33.6 l 42.2,42.2 c 9.1,9.1 23.5,9.899 33.6,1.899 l 30.7,-24.3 c 15.8,9.101 32.6,16.2 50.1,21.2 l 4.6,39.5 c 1.5,12.8 12.3,22.4 25.1,22.4 h 59.7 c 12.8,0 23.6,-9.601 25.1,-22.4 l 4.4,-38.1 c 18.8,-4.9 36.8,-12.2 53.7,-21.7 l 29.7,23.5 c 10.1,8 24.5,7.1 33.6,-1.9 l 42.2,-42.2 c 9.1,-9.1 9.9,-23.5 1.9,-33.6 l -23.1,-29.3 c 9.6,-16.601 17.1,-34.3 22.1,-52.8 l 35.6,-4.1 c 12.801,-1.5 22.4,-12.3 22.4,-25.1 v -59.7 c 0,-12.8 -9.6,-23.6 -22.4,-25.1 l -35.1,-4.1 c -4.801,-18.3 -12,-35.8 -21.199,-52.2 l 21.6,-27.3 c 8,-10.1 7.1,-24.5 -1.9,-33.6 l -42.1,-42.1 c -9.1,-9.1 -23.5,-9.9 -33.6,-1.9 l -26.5,21 c -17.2,-10.1 -35.601,-17.8 -54.9,-23 l -4,-34.3 c -1.5,-12.8 -12.3,-22.4 -25.1,-22.4 h -59.7 c -12.8,0 -23.6,9.6 -25.1,22.4 l -4,34.3 c -19.8,5.3 -38.7,13.3 -56.3,23.8 l -27.5,-21.8 c -10.1,-8 -24.5,-7.1 -33.6,1.9 l -42.2,42.2 c -9.1,9.1 -9.9,23.5 -1.9,33.6 l 23,29.1 c -9.2,16.6 -16.2,34.3 -20.8,52.7 l -36.8,4.2 c -12.8,1.5 -22.4,12.3 -22.4,25.1 v 59.7 c 0,12.8 9.6,23.6 22.4,25.1 z m 216.3,-161.5 c 54.4,0 98.7,44.3 98.7,98.7 0,54.4 -44.3,98.7 -98.7,98.7 -54.399,0 -98.7,-44.3 -98.7,-98.7 0,-54.4 44.3,-98.7 98.7,-98.7 z"
           id="path1468" />
        <path
           style="fill:#ffffff"
           inkscape:connector-curvature="0"
           d="m 867.699,356.238 -31.5,-26.6 c -9.699,-8.2 -24,-7.8 -33.199,0.9 l -17.4,16.3 c -14.699,-7.1 -30.299,-12.1 -46.4,-15 l -4.898,-24 c -2.5,-12.4 -14,-21 -26.602,-20 l -41.1,3.5 c -12.6,1.1 -22.5,11.4 -22.9,24.1 l -0.799,24.4 c -15.801,5.7 -30.701,13.5 -44.301,23.3 l -20.799,-13.8 c -10.602,-7 -24.701,-5 -32.9,4.7 l -26.6,31.7 c -8.201,9.7 -7.801,24 0.898,33.2 l 18.201,19.399 c -6.301,14.2 -10.801,29.101 -13.4,44.4 l -26,5.3 c -12.4,2.5 -21,14 -20,26.601 l 3.5,41.1 c 1.1,12.6 11.4,22.5 24.1,22.9 l 28.1,0.899 c 5.102,13.4 11.801,26.101 19.9,38 l -15.699,23.7 c -7,10.6 -5,24.7 4.699,32.9 l 31.5,26.6 c 9.701,8.2 24,7.8 33.201,-0.9 l 20.6,-19.3 c 13.5,6.3 27.699,11 42.299,13.8 l 5.701,28.2 c 2.5,12.4 14,21 26.6,20 l 41.1,-3.5 c 12.6,-1.1 22.5,-11.399 22.9,-24.1 l 0.9,-27.601 c 15,-5.3 29.199,-12.5 42.299,-21.399 l 22.701,15 c 10.6,7 24.699,5 32.9,-4.7 l 26.6,-31.5 c 8.199,-9.7 7.799,-24 -0.9,-33.2 L 872.7,592.138 c 6.701,-14.2 11.602,-29.2 14.4,-44.601 l 25,-5.1 c 12.4,-2.5 21,-14 20,-26.601 l -3.5,-41.1 c -1.1,-12.6 -11.4,-22.5 -24.1,-22.9 l -25.1,-0.8 c -5.201,-14.6 -12.201,-28.399 -20.9,-41.2 l 13.699,-20.6 c 7.201,-10.598 5.201,-24.798 -4.5,-32.998 z M 712.801,593.837 c -44.4,3.801 -83.602,-29.3 -87.301,-73.699 -3.801,-44.4 29.301,-83.601 73.699,-87.301 44.4,-3.8 83.602,29.301 87.301,73.7 3.801,44.401 -29.301,83.601 -73.699,87.3 z"
           id="path1470" />
        <path
           style="fill:#ffffff"
           inkscape:connector-curvature="0"
           d="m 205,704.438 c -12.6,1.3 -22.3,11.899 -22.4,24.6 l -0.3,25.3 c -0.2,12.7 9.2,23.5 21.8,25.101 l 18.6,2.399 c 3.1,11.301 7.5,22.101 13.2,32.301 l -12,14.8 c -8,9.899 -7.4,24.1 1.5,33.2 l 17.7,18.1 c 8.9,9.1 23.1,10.1 33.2,2.3 l 14.899,-11.5 c 10.5,6.2 21.601,11.101 33.2,14.5 l 2,19.2 c 1.3,12.6 11.9,22.3 24.6,22.4 l 25.301,0.3 c 12.699,0.2 23.5,-9.2 25.1,-21.8 l 2.3,-18.2 c 12.601,-3.101 24.601,-7.8 36,-14 l 14,11.3 c 9.9,8 24.101,7.4 33.201,-1.5 l 18.1,-17.7 c 9.1,-8.899 10.1,-23.1 2.301,-33.2 L 496.6,818.438 c 6.6,-11 11.701,-22.7 15.201,-35 l 16.6,-1.7 c 12.6,-1.3 22.299,-11.9 22.4,-24.6 l 0.299,-25.301 c 0.201,-12.699 -9.199,-23.5 -21.799,-25.1 l -16.201,-2.1 c -3.1,-12.2 -7.699,-24 -13.699,-35 l 10.1,-12.4 c 8,-9.9 7.4,-24.1 -1.5,-33.2 l -17.699,-18.1 c -8.9,-9.101 -23.102,-10.101 -33.201,-2.3 l -12.101,9.3 c -11.399,-6.9 -23.6,-12.2 -36.399,-15.8 L 407,581.437 c -1.3,-12.601 -11.899,-22.3 -24.6,-22.4 l -25.3,-0.3 c -12.7,-0.2 -23.5,9.2 -25.101,21.8 l -2,15.601 c -13.199,3.399 -25.899,8.6 -37.699,15.399 l -12.5,-10.2 c -9.9,-8 -24.101,-7.399 -33.201,1.5 l -18.2,17.801 c -9.1,8.899 -10.1,23.1 -2.3,33.199 l 10.7,13.801 c -6.2,11 -11.1,22.699 -14.3,35 z m 163.3,-28.601 c 36.3,0.4 65.399,30.301 65,66.601 -0.4,36.3 -30.301,65.399 -66.601,65 -36.3,-0.4 -65.399,-30.3 -65,-66.601 0.401,-36.299 30.301,-65.399 66.601,-65 z"
           id="path1472" />
      </g>
      <g
         style="fill:#ffffff"
         id="g1476" />
      <g
         style="fill:#ffffff"
         id="g1478" />
      <g
         style="fill:#ffffff"
         id="g1480" />
      <g
         style="fill:#ffffff"
         id="g1482" />
      <g
         style="fill:#ffffff"
         id="g1484" />
      <g
         style="fill:#ffffff"
         id="g1486" />
      <g
         style="fill:#ffffff"
         id="g1488" />
      <g
         style="fill:#ffffff"
         id="g1490" />
      <g
         style="fill:#ffffff"
         id="g1492" />
      <g
         style="fill:#ffffff"
         id="g1494" />
      <g
         style="fill:#ffffff"
         id="g1496" />
      <g
         style="fill:#ffffff"
         id="g1498" />
      <g
         style="fill:#ffffff"
         id="g1500" />
      <g
         style="fill:#ffffff"
         id="g1502" />
      <g
         style="fill:#ffffff"
         id="g1504" />
    </g>
    <text
       xml:space="preserve"
       style="font-style:normal;font-weight:normal;font-size:6.3499999px;line-height:1.25;font-family:sans-serif;letter-spacing:0px;word-spacing:0px;fill:#000000;fill-opacity:1;stroke:none;stroke-width:0.26458332"
       x="188.74026"
       y="268.71039"
       id="text1510"><tspan
         sodipodi:role="line"
         id="tspan1508"
         x="188.74026"
         y="268.71039"
         style="font-size:5.64444447px;fill:#ffffff;stroke-width:0.26458332">setting</tspan></text>
    <g
       id="g1582"
       transform="matrix(0.02254973,0,0,0.02918196,192.1975,217.97801)"
       style="fill:#ffffff">
      <g
         id="g1516"
         style="fill:#ffffff">
        <g
           id="g1514"
           style="fill:#ffffff">
          <path
             id="path1512"
             d="M 438.827,186.347 358.614,98.198 c -15.872,-15.872 -41.728,-15.893 -57.749,0.128 -5.077,5.077 -8.533,11.157 -10.325,17.643 -15.957,-12.224 -38.976,-11.008 -53.675,3.691 -5.056,5.077 -8.512,11.157 -10.347,17.621 -15.957,-12.181 -38.976,-10.987 -53.653,3.712 -4.971,4.971 -8.384,10.901 -10.24,17.216 l -37.803,-37.803 c -15.872,-15.872 -41.728,-15.893 -57.749,0.128 -15.893,15.872 -15.893,41.728 0,57.621 l 145.237,145.237 -86.144,13.525 c -23.275,3.328 -40.832,23.552 -40.832,47.083 0,17.643 14.357,32 32,32 h 201.152 c 31.339,0 60.8,-12.203 82.965,-34.368 l 33.557,-33.557 c 22.144,-22.123 34.325,-51.563 34.325,-82.859 0,-29.227 -10.837,-57.237 -30.506,-78.869 z m -18.902,146.645 -33.557,33.557 c -18.133,18.133 -42.24,28.117 -67.883,28.117 H 117.333 c -5.888,0 -10.667,-4.779 -10.667,-10.667 0,-12.971 9.685,-24.128 22.677,-25.984 L 236.33,341.204 c 3.968,-0.619 7.232,-3.413 8.491,-7.232 1.237,-3.797 0.235,-8 -2.603,-10.837 L 82.155,163.072 c -7.573,-7.573 -7.573,-19.904 0.107,-27.605 3.797,-3.776 8.768,-5.675 13.739,-5.675 4.971,0 9.941,1.899 13.739,5.696 l 106.731,106.731 c 4.16,4.16 10.923,4.16 15.083,0 2.069,-2.091 3.115,-4.821 3.115,-7.552 0,-2.731 -1.045,-5.461 -3.136,-7.552 l -43.584,-43.584 c -7.573,-7.573 -7.573,-19.883 0.128,-27.584 7.552,-7.552 19.904,-7.552 27.456,0 l 43.605,43.605 c 4.16,4.16 10.923,4.16 15.083,0 2.069,-2.091 3.115,-4.821 3.115,-7.552 0,-2.731 -1.045,-5.461 -3.136,-7.552 l -22.251,-22.251 c -7.573,-7.573 -7.573,-19.883 0.128,-27.584 7.552,-7.552 19.904,-7.552 27.456,0 l 22.357,22.357 c 0.043,0.021 0.021,0.021 0.021,0.021 l 0.021,0.021 c 0.021,0.021 0.021,0.021 0.021,0.021 0.021,0.021 0.021,0.021 0.021,0.021 h 0.021 c 0.021,0 0.021,0.021 0.021,0.021 4.181,3.968 10.795,3.883 14.869,-0.213 4.16,-4.16 4.16,-10.923 0,-15.083 l -0.917,-0.917 c -3.669,-3.669 -5.696,-8.555 -5.696,-13.739 0,-5.184 2.005,-10.048 5.803,-13.845 7.595,-7.552 19.883,-7.531 27.115,-0.363 l 79.872,87.787 c 16.063,17.687 24.938,40.599 24.938,64.514 0,25.6 -9.963,49.664 -28.075,67.776 z"
             inkscape:connector-curvature="0"
             style="fill:#ffffff" />
        </g>
      </g>
      <g
         id="g1522"
         style="fill:#ffffff">
        <g
           id="g1520"
           style="fill:#ffffff">
          <path
             id="path1518"
             d="M 183.381,109.931 C 167.851,75.563 133.547,53.333 96,53.333 c -52.928,0 -96,43.072 -96,96 0,37.547 22.229,71.851 56.597,87.403 1.429,0.64 2.923,0.939 4.395,0.939 4.053,0 7.936,-2.347 9.728,-6.272 2.411,-5.376 0.021,-11.691 -5.333,-14.123 -26.752,-12.096 -44.053,-38.763 -44.053,-67.947 0,-41.173 33.493,-74.667 74.667,-74.667 29.184,0 55.851,17.301 67.947,44.053 2.411,5.376 8.747,7.787 14.101,5.333 5.375,-2.431 7.764,-8.745 5.332,-14.121 z"
             inkscape:connector-curvature="0"
             style="fill:#ffffff" />
        </g>
      </g>
      <g
         id="g1524"
         style="fill:#ffffff" />
      <g
         id="g1526"
         style="fill:#ffffff" />
      <g
         id="g1528"
         style="fill:#ffffff" />
      <g
         id="g1530"
         style="fill:#ffffff" />
      <g
         id="g1532"
         style="fill:#ffffff" />
      <g
         id="g1534"
         style="fill:#ffffff" />
      <g
         id="g1536"
         style="fill:#ffffff" />
      <g
         id="g1538"
         style="fill:#ffffff" />
      <g
         id="g1540"
         style="fill:#ffffff" />
      <g
         id="g1542"
         style="fill:#ffffff" />
      <g
         id="g1544"
         style="fill:#ffffff" />
      <g
         id="g1546"
         style="fill:#ffffff" />
      <g
         id="g1548"
         style="fill:#ffffff" />
      <g
         id="g1550"
         style="fill:#ffffff" />
      <g
         id="g1552"
         style="fill:#ffffff" />
    </g>
    <path
       style="fill:none;stroke:#3498db;stroke-width:4.52834129;stroke-linecap:round;stroke-linejoin:miter;stroke-miterlimit:4;stroke-dasharray:none;stroke-opacity:1"
       d="M 14.852426,192.25096 H 55.70313"
       id="path1013"
       inkscape:connector-curvature="0" />
    <path
       inkscape:connector-curvature="0"
       id="path1015"
       d="M 14.852426,209.11914 H 55.70313"
       style="fill:none;stroke:#3498db;stroke-width:4.52834129;stroke-linecap:round;stroke-linejoin:miter;stroke-miterlimit:4;stroke-dasharray:none;stroke-opacity:1" />
    <path
       style="fill:none;stroke:#3498db;stroke-width:4.52834129;stroke-linecap:round;stroke-linejoin:miter;stroke-miterlimit:4;stroke-dasharray:none;stroke-opacity:1"
       d="M 14.852426,225.98733 H 55.70313"
       id="path1017"
       inkscape:connector-curvature="0" />
    <path
       inkscape:connector-curvature="0"
       id="path1019"
       d="M 14.852426,242.8555 H 55.70313"
       style="fill:none;stroke:#3498db;stroke-width:4.52834129;stroke-linecap:round;stroke-linejoin:miter;stroke-miterlimit:4;stroke-dasharray:none;stroke-opacity:1" />
    <path
       style="fill:none;stroke:#3498db;stroke-width:4.52834129;stroke-linecap:round;stroke-linejoin:miter;stroke-miterlimit:4;stroke-dasharray:none;stroke-opacity:1"
       d="M 14.852426,259.72369 H 55.70313"
       id="path1021"
       inkscape:connector-curvature="0" />
    <path
       inkscape:connector-curvature="0"
       id="path1023"
       d="M 14.852426,276.59187 H 55.70313"
       style="fill:none;stroke:#3498db;stroke-width:4.52834129;stroke-linecap:round;stroke-linejoin:miter;stroke-miterlimit:4;stroke-dasharray:none;stroke-opacity:1" />
    <rect
       style="opacity:1;fill:#ffffff;fill-opacity:1;stroke:#000000;stroke-width:0.61943865;stroke-linecap:round;stroke-linejoin:round;stroke-miterlimit:4;stroke-dasharray:none;stroke-opacity:1"
       id="rect1027"
       width="12.609728"
       height="12.609728"
       x="63.671722"
       y="185.91397" />
    <rect
       y="202.84708"
       x="63.671722"
       height="12.609728"
       width="12.609728"
       id="rect1029"
       style="opacity:1;fill:#ffffff;fill-opacity:1;stroke:#000000;stroke-width:0.61943865;stroke-linecap:round;stroke-linejoin:round;stroke-miterlimit:4;stroke-dasharray:none;stroke-opacity:1" />
    <rect
       style="opacity:1;fill:#ffffff;fill-opacity:1;stroke:#000000;stroke-width:0.61943865;stroke-linecap:round;stroke-linejoin:round;stroke-miterlimit:4;stroke-dasharray:none;stroke-opacity:1"
       id="rect1031"
       width="12.609728"
       height="12.609728"
       x="63.671722"
       y="219.78018" />
    <rect
       y="236.18413"
       x="63.671722"
       height="12.609728"
       width="12.609728"
       id="rect1033"
       style="opacity:1;fill:#ffffff;fill-opacity:1;stroke:#000000;stroke-width:0.61943865;stroke-linecap:round;stroke-linejoin:round;stroke-miterlimit:4;stroke-dasharray:none;stroke-opacity:1" />
    <rect
       style="opacity:1;fill:#ffffff;fill-opacity:1;stroke:#000000;stroke-width:0.61943865;stroke-linecap:round;stroke-linejoin:round;stroke-miterlimit:4;stroke-dasharray:none;stroke-opacity:1"
       id="rect1035"
       width="12.609728"
       height="12.609728"
       x="63.671722"
       y="253.11723" />
    <rect
       y="270.05075"
       x="63.671722"
       height="12.609728"
       width="12.609728"
       id="rect1037"
       style="opacity:1;fill:#ffffff;fill-opacity:1;stroke:#000000;stroke-width:0.61943865;stroke-linecap:round;stroke-linejoin:round;stroke-miterlimit:4;stroke-dasharray:none;stroke-opacity:1" />
    <text
       xml:space="preserve"
       style="font-style:normal;font-weight:normal;font-size:6.3499999px;line-height:1.25;font-family:sans-serif;letter-spacing:0px;word-spacing:0px;fill:#000000;fill-opacity:1;stroke:none;stroke-width:0.26458332"
       x="67.567635"
       y="194.80164"
       id="text1041"><tspan
         sodipodi:role="line"
         id="tspan1039"
         x="67.567635"
         y="194.80164"
         style="stroke-width:0.26458332">1</tspan></text>
    <text
       id="text1045"
       y="211.73474"
       x="67.567635"
       style="font-style:normal;font-weight:normal;font-size:6.3499999px;line-height:1.25;font-family:sans-serif;letter-spacing:0px;word-spacing:0px;fill:#000000;fill-opacity:1;stroke:none;stroke-width:0.26458332"
       xml:space="preserve"><tspan
         style="stroke-width:0.26458332"
         y="211.73474"
         x="67.567635"
         id="tspan1043"
         sodipodi:role="line">2</tspan></text>
    <text
       xml:space="preserve"
       style="font-style:normal;font-weight:normal;font-size:6.3499999px;line-height:1.25;font-family:sans-serif;letter-spacing:0px;word-spacing:0px;fill:#000000;fill-opacity:1;stroke:none;stroke-width:0.26458332"
       x="67.567635"
       y="228.13869"
       id="text1049"><tspan
         sodipodi:role="line"
         id="tspan1047"
         x="67.567635"
         y="228.13869"
         style="stroke-width:0.26458332">3</tspan></text>
    <text
       id="text1053"
       y="244.54263"
       x="67.567635"
       style="font-style:normal;font-weight:normal;font-size:6.3499999px;line-height:1.25;font-family:sans-serif;letter-spacing:0px;word-spacing:0px;fill:#000000;fill-opacity:1;stroke:none;stroke-width:0.26458332"
       xml:space="preserve"><tspan
         style="stroke-width:0.26458332"
         y="244.54263"
         x="67.567635"
         id="tspan1051"
         sodipodi:role="line">4</tspan></text>
    <text
       xml:space="preserve"
       style="font-style:normal;font-weight:normal;font-size:6.3499999px;line-height:1.25;font-family:sans-serif;letter-spacing:0px;word-spacing:0px;fill:#000000;fill-opacity:1;stroke:none;stroke-width:0.26458332"
       x="67.567635"
       y="262.00507"
       id="text1057"><tspan
         sodipodi:role="line"
         id="tspan1055"
         x="67.567635"
         y="262.00507"
         style="stroke-width:0.26458332">5</tspan></text>
    <text
       id="text1061"
       y="278.40948"
       x="67.567635"
       style="font-style:normal;font-weight:normal;font-size:6.3499999px;line-height:1.25;font-family:sans-serif;letter-spacing:0px;word-spacing:0px;fill:#000000;fill-opacity:1;stroke:none;stroke-width:0.26458332"
       xml:space="preserve"><tspan
         style="stroke-width:0.26458332"
         y="278.40948"
         x="67.567635"
         id="tspan1059"
         sodipodi:role="line">6</tspan></text>
    <g
       id="g1130"
       transform="matrix(0.02834822,0,0,0.02834729,109.43717,261.78869)">
      <g
         id="g1071">
	<g
   id="g1069">
		<g
   id="g1067">
			<path
   id="path1063"
   d="M 442.311,69.689 C 397.37,24.75 337.621,0.001 274.066,0.001 c -63.555,0 -123.304,24.749 -168.245,69.688 -44.94,44.94 -69.688,104.691 -69.688,168.245 0,56.841 19.811,110.63 56.144,153.512 L 0,483.722 l 28.277,28.277 92.276,-92.276 c 42.882,36.333 96.671,56.144 153.513,56.144 63.554,0 123.305,-24.749 168.245,-69.689 C 487.251,361.239 512,301.488 512,237.934 512,174.38 487.251,114.629 442.311,69.689 Z m -168.245,366.19 c -109.148,0 -197.945,-88.797 -197.945,-197.945 0,-109.148 88.798,-197.945 197.945,-197.945 109.147,0 197.945,88.797 197.945,197.945 0,109.148 -88.798,197.945 -197.945,197.945 z"
   inkscape:connector-curvature="0" />

			<path
   id="path1065"
   d="m 354.044,146.959 h -21.462 c -7.348,-24.821 -30.344,-42.988 -57.516,-42.988 -26.807,0 -49.56,17.679 -57.222,41.988 h -20.756 v -33.99 h -39.989 v 73.979 h 57.984 v 29.992 h -57.984 v 39.989 h 57.984 v 28.992 H 157.099 V 358.9 h 39.989 v -33.99 h 21.095 c 7.966,23.79 30.447,40.989 56.883,40.989 26.437,0 48.917,-17.198 56.883,-40.989 h 22.095 v 33.99 h 39.989 v -73.979 h -58.984 v -27.992 h 58.984 V 216.94 h -58.984 v -29.992 h 58.984 v -73.979 h -39.989 z m -58.983,158.956 c 0,11.025 -8.969,19.994 -19.994,19.994 -11.025,0 -19.994,-8.969 -19.994,-19.994 v -141.96 c 0,-11.025 8.969,-19.994 19.994,-19.994 11.025,0 19.994,8.969 19.994,19.994 z"
   inkscape:connector-curvature="0" />

		</g>

	</g>

</g>
      <g
         id="g1073">
</g>
      <g
         id="g1075">
</g>
      <g
         id="g1077">
</g>
      <g
         id="g1079">
</g>
      <g
         id="g1081">
</g>
      <g
         id="g1083">
</g>
      <g
         id="g1085">
</g>
      <g
         id="g1087">
</g>
      <g
         id="g1089">
</g>
      <g
         id="g1091">
</g>
      <g
         id="g1093">
</g>
      <g
         id="g1095">
</g>
      <g
         id="g1097">
</g>
      <g
         id="g1099">
</g>
      <g
         id="g1101">
</g>
    </g>
  </g>
</svg>
